<?xml version="1.0" encoding="UTF-8"?>
<svg xmlns="http://www.w3.org/2000/svg" width="1024" height="1024" viewBox="0 0 753.5 753.5">
  <title>MindState app icon</title>
  <rect width="753.5" height="753.5" rx="16.6667%" ry="16.6667%" fill="#FF6B35" />
  <defs>
    <clipPath id="appIconClip1"><path d="M0,46h753.5v604.29h-753.5z" /></clipPath>
  </defs>
  <g transform="translate(67.815 91.2711) scale(0.82)">
    <g>
      <g clip-path="url(#appIconClip1)">
      <path d="m753.5,419.07c0,-19.65 -6.16,-37.92 -16.71,-53.69 0,-0.78 0.08,-1.64 0.08,-2.41 0,-42.86 -9.71,-83.87 -27.19,-121.18 -18.29,-38.87 -45.16,-73.76 -78.18,-102.95 -33.18,-29.19 -73,-52.69 -117.02,-68.78 -42.57,-15.52 -89.02,-24.07 -137.73,-24.07 -48.71,0 -95.17,8.55 -137.74,24.07 -44.18,16.09 -83.84,39.58 -117.02,68.78 -33.02,29.19 -59.88,64.08 -78.17,102.95 -17.49,37.3 -27.2,78.32 -27.2,121.18 0,0.77 0.08,1.62 0.08,2.4 -10.55,15.77 -16.71,34.04 -16.71,53.69l11.98,92.57c0,29.44 75.88,43.07 109.13,43.07 8.16,0 14.85,-5.7 14.85,-12.88 0,0 -45.99,-58.06 -45.41,-130.74 0.58,-72.68 36.38,-80.29 43.02,-85.14v-0.56c0,-6.99 -4.3,-12.88 -12.46,-12.88 -6.77,0 -13.37,0.62 -19.85,1.57 3.6,-15.84 8.91,-31.11 15.72,-45.66 14.24,-30.19 35.12,-57.53 61.01,-80.31 26.06,-22.78 56.98,-41.15 91.29,-53.68 33.01,-12.1 69.27,-18.65 107.47,-18.65 38.2,0 74.45,6.55 107.47,18.65 34.31,12.53 65.23,30.9 91.28,53.68 25.89,22.78 46.78,50.12 61.02,80.31 6.81,14.55 12.12,29.82 15.72,45.66 -6.48,-0.95 -13.09,-1.57 -19.85,-1.57 -8.16,0 -12.46,5.89 -12.46,12.88v0.56c7.93,5.79 40.61,6.14 43.99,83.45 3.25,74.31 -46.38,132.43 -46.38,132.43 0,7.18 6.7,12.88 14.85,12.88 33.26,0 109.13,-13.63 109.13,-43.07l11.98,-92.57z" fill="#fff" />
      <path d="m357.24,170.92c-11.38,-21.25 -33.24,-32.64 -54.59,-29.62 -36.64,7.62 -51.41,37.1 -51.37,77.87 -20.48,-4.42 -37.36,-3.23 -53.63,7.86 -35.31,24.05 -35.98,59.82 -26.22,94.49 -51.88,32.58 -67.44,101.01 -26.66,153.2 19.33,24.72 12.18,7.76 9,39.36 -4.57,45.53 25.79,86.65 65.67,86.24 3.02,0.1 5.71,-0.44 9.15,-0.45 11.47,22.01 22.25,41.21 45.25,47.88 39.71,11.5 79.68,-17.36 89.22,-62.7 0.92,-4.37 1.39,-9.1 1.65,-14.15v0c0,0 1.62,-17.74 1.62,-17.74L366.33,216.24l-0.3,0.33c-0.72,-17.82 -2.97,-34.78 -8.8,-45.66" fill="#f9d4d0" />
      <path d="m580.15,321.52c9.76,-34.68 9.09,-70.44 -26.22,-94.49 -16.27,-11.08 -33.15,-12.27 -53.63,-7.86 0.04,-40.77 -14.74,-70.25 -51.37,-77.87 -21.35,-3.02 -43.21,8.37 -54.59,29.62 -5.83,10.89 -8.07,27.85 -8.8,45.66l-0.3,-0.33v336.92l1.62,17.74v0c0.27,5.05 0.74,9.78 1.65,14.15 9.54,45.34 49.51,74.2 89.22,62.7 23,-6.68 33.78,-25.87 45.25,-47.88 3.44,0.01 6.14,0.55 9.16,0.45 39.88,0.41 70.24,-40.72 65.67,-86.24 -3.18,-31.6 -10.33,-14.64 9,-39.36 40.78,-52.19 25.22,-120.62 -26.66,-153.2" fill="#f9d4d0" />
      <path d="m537.28,405.49c-12.89,7.8 -23.46,18.82 -32.86,30.46 -11.42,14.25 -21.67,29.79 -36.03,41.35 -8.79,7.35 -20.01,12.76 -31.72,11.84 -9.73,-0.53 -18.24,-6.25 -24.99,-12.88C400.05,464.6 391.84,450.09 384.7,435.39 367.21,399.05 356.82,359.73 338.72,323.65c-7.59,-14.23 -16.71,-28.58 -30.73,-37.25 -9.23,-5.87 -20.93,-7.33 -31.4,-4.26 -14.91,4.2 -26.82,14.83 -37.55,25.53 -9.73,9.84 -19.28,19.95 -30.37,28.29 -14.55,11.03 -31.11,19.43 -48.71,24.33 -4.69,1.61 -9.92,2.11 -14,5.11 6.59,3.4 14.18,4.15 21.47,4.54 17.77,0.83 35.88,-4.25 50.32,-14.74 15.21,-10.6 27.31,-24.78 40.6,-37.55 7.42,-6.71 15.5,-13.69 25.63,-15.6 7.63,-1.6 14.93,2.79 20.1,8 9.84,10.06 16.2,22.88 22.04,35.53 15.48,35.14 26.09,72.34 43.65,106.58 7.7,14.82 16.88,29.17 29.08,40.71 10.47,9.95 24.18,17.02 38.79,17.62 15.57,0.52 30.47,-6.28 42.54,-15.71 13.65,-10.9 24.4,-24.84 35,-38.6 9.89,-12.88 20.59,-25.61 34.44,-34.41 13.58,-8.71 28.96,-14.31 44.69,-17.68 3.78,-0.98 7.74,-1.41 11.33,-3.07 -6.74,-4.14 -14.8,-5.18 -22.52,-6.01 -15.88,-1.64 -32.21,2.15 -45.83,10.47" fill="#8e536c" />
    </g>
      </g>
  </g>
</svg>
