<?xml version="1.0" encoding="UTF-8" standalone="no"?>
<!-- Created with Inkscape (http://www.inkscape.org/) -->

<svg
   version="1.1"
   id="svg1"
   width="800"
   height="800"
   viewBox="0 0 800.00001 800"
   sodipodi:docname="LogoLarge.svg"
   inkscape:version="1.4.2 (ebf0e940d0, 2025-05-08)"
   xmlns:inkscape="http://www.inkscape.org/namespaces/inkscape"
   xmlns:sodipodi="http://sodipodi.sourceforge.net/DTD/sodipodi-0.dtd"
   xmlns="http://www.w3.org/2000/svg"
   xmlns:svg="http://www.w3.org/2000/svg">
  <defs
     id="defs1" />
  <sodipodi:namedview
     id="namedview1"
     pagecolor="#ffffff"
     bordercolor="#666666"
     borderopacity="1.0"
     inkscape:showpageshadow="2"
     inkscape:pageopacity="0.0"
     inkscape:pagecheckerboard="0"
     inkscape:deskcolor="#d1d1d1"
     inkscape:zoom="0.65584154"
     inkscape:cx="256.92182"
     inkscape:cy="270.64464"
     inkscape:window-width="1505"
     inkscape:window-height="1164"
     inkscape:window-x="0"
     inkscape:window-y="0"
     inkscape:window-maximized="1"
     inkscape:current-layer="g1" />
  <g
     inkscape:groupmode="layer"
     inkscape:label="Image"
     id="g1"
     transform="translate(9.9766433,-32.900751)">
    <g
       id="g4"
       transform="matrix(0.97564514,0,0,0.97564514,15.425445,37.972641)">
      <path
         style="fill:#000000"
         d="m 235.90399,700.47156 c -18.38184,-1.78422 -36.46737,-7.96977 -64.93126,-22.20756 -22.01979,-11.01441 -29.76229,-13.81661 -58.79463,-21.27922 -38.244815,-9.83063 -40.177185,-11.0336 -48.640295,-30.28044 -6.49201,-14.76414 -8.74738,-18.01536 -21.71685,-31.30587 -17.58827,-18.02364 -18.94569,-22.48296 -18.04615,-59.2846 1.16263,-47.56581 11.01435,-88.36717 24.75563,-102.52662 3.76904,-3.88373 4.35297,-5.2156 6.53803,-14.91229 12.78805,-56.74994 43.62605,-93.67723 116.904265,-139.98827 10.45,-6.60428 20.65927,-13.14253 22.68726,-14.52943 2.38057,-1.62802 7.02269,-7.59073 13.09933,-16.82581 19.26193,-29.27368 37.00346,-48.10777 59.95146,-63.64337 l 7.26195,-4.91628 4.16859,-12.87226 C 299.82669,102.02485 345.05767,57.270394 401.24775,45.079556 489.08126,26.023452 552.21827,36.536403 605.56429,79.100327 660.92245,123.26974 691.80415,202.08494 681.94115,274.02728 l -0.5484,4 8.29,5.49857 c 48.651,32.26923 73.7503,74.50187 73.7841,124.15094 0.01,8.22485 0.1779,8.9051 3.5091,13.8552 18.479,27.45967 2.4072,94.76737 -27.5929,115.55745 -2.6686,1.84931 -5.2899,5.2659 -8.3564,10.89145 -20.6964,37.96804 -50.7041,65.28135 -86.8105,79.01591 -3.4339,1.30622 -11.86842,5.06719 -18.74342,8.35771 -37.09786,17.75584 -73.92421,22.52008 -112.71689,14.58226 -7.13805,-1.4606 -7.27171,-1.44896 -12.2332,1.06522 -8.34726,4.22987 -15.29255,5.52529 -29.62352,5.52529 -20.86678,0 -29.51543,2.58511 -50.8138,15.18844 -21.81274,12.9077 -26.41271,14.03297 -44.13772,10.79728 -14.68473,-2.6807 -18.43487,-2.3205 -31.75037,3.04959 -13.0936,5.28061 -17.37959,5.68943 -31.87407,3.04034 -14.308,-2.61501 -16.6136,-2.21721 -32.06634,5.53263 -14.12865,7.08579 -23.23137,8.38615 -44.35283,6.336 z m 17.11179,-19.36535 c 7.26038,-1.83392 21.81527,-3.96841 41.45695,-6.07971 43.15746,-4.63903 59.33926,-11.56065 72.78252,-31.13206 1.10735,-1.61215 1.22666,-1.21929 0.87355,2.87646 -0.284,3.29416 -1.287,5.84937 -3.28251,8.36239 -5.34825,6.73524 -5.61802,7.28384 -4.92995,10.02535 l 0.66788,2.66102 13.69425,-0.58139 c 32.43005,-1.37681 54.79315,-13.99207 64.88787,-36.60393 6.23796,-13.97282 5.44183,-17.35982 -5.31784,-22.62404 -5.50473,-2.69321 -8.54441,-6.14273 -6.51703,-7.39572 0.65033,-0.40192 -0.42645,-2.39032 -2.76451,-5.10502 -2.98675,-3.46787 -4.13401,-4.20671 -5.21199,-3.35653 -0.76023,0.59957 -6.33224,5.00665 -12.38224,9.79351 -14.97425,11.84787 -33.29949,20.58074 -43.18705,20.58074 -4.23893,0 -5.78241,4.07053 -3.80309,10.0297 2.74555,8.26607 -0.0791,7.70169 -8.02948,-1.60434 -8.71437,-10.20029 -12.42678,-10.55757 -24.50001,-2.35786 -9.42955,6.40421 -17.70647,9.9325 -23.3004,9.9325 -5.9614,0 -7.47887,2.96106 -4.29856,8.38785 1.44022,2.45756 2.61859,5.17566 2.61859,6.04022 0,2.77278 -2.48604,1.68178 -4.44141,-1.94913 -9.81617,-18.22753 -33.89311,-23.08266 -60.83086,-12.26659 -4.80025,1.9274 -8.72773,3.43825 -8.72773,3.35745 0,-0.0808 0.8831,-1.87906 1.96244,-3.99613 2.58272,-5.06585 5.25764,-17.28371 4.85638,-22.18182 -0.34837,-4.25253 -0.43003,-4.27727 -10.81882,-3.27751 -1.925,0.18525 -4.44086,0.003 -5.5908,-0.40562 -1.93226,-0.68614 -2.10451,-0.35508 -2.27161,4.36586 -0.33769,9.54095 -5.46802,15.98773 -6.51711,8.18941 -0.75427,-5.60688 -5.02865,-13.4239 -9.88208,-18.07247 l -3.45429,-3.30848 -6.39206,2.13367 c -28.96723,9.66931 -34.55912,33.32979 -13.40245,56.70867 24.94461,27.56468 59.78418,26.76798 75.4502,-1.72538 l 3.02397,-5.5 0.0181,4.78212 c 0.0233,6.14433 -1.59767,9.87792 -7.33737,16.90043 -5.07996,6.21533 -5.52815,7.21212 -2.89451,6.43752 0.9625,-0.28309 4.46937,-1.2016 7.79305,-2.04114 z M 152.47273,637.56246 c 0,-13.98184 1.3837,-13.19061 -24.66186,-14.1022 -18.60415,-0.65114 -20.58697,-0.90028 -25.66418,-3.22471 -9.566805,-4.37982 -9.694435,-8.76502 -0.17396,-5.97687 14.28313,4.18293 17.83295,2.54061 12.62321,-5.84011 -5.50011,-8.84782 -3.30488,-10.03339 4.87375,-2.63216 12.60829,11.40985 27.5521,15.19771 36.59138,9.27494 6.65834,-4.36271 -0.65084,-24.04489 -14.39095,-38.75201 -21.58844,-23.10781 -24.60774,-28.11466 -24.49974,-40.6274 0.11696,-13.55048 3.99388,-20.30277 23.51232,-40.95046 28.5566,-30.20876 31.73237,-43.4956 13.31506,-55.70779 l -7.53513,-4.99641 3.53006,-0.31186 c 5.65138,-0.49926 13.43364,3.72764 20.91949,11.36233 3.63332,3.70555 6.78101,6.56011 6.99486,6.34345 1.2716,-1.2883 -2.3236,-12.98824 -6.99233,-22.75528 -5.19023,-10.85802 -5.30924,-11.28423 -2.6864,-9.62054 4.73649,3.00439 8.20948,6.74328 9.44978,10.17328 1.90819,5.27698 4.87644,4.29377 14.4006,-4.7701 3.35827,-3.19598 7.34004,-6.12061 8.84838,-6.49918 4.5647,-1.14566 0.53919,-12.64576 -9.15733,-26.1607 -6.28817,-8.7644 -10.77072,-16.2614 -9.72289,-16.2614 0.42029,0 3.15624,1.35 6.07987,3 6.45225,3.64142 6.0235,3.63829 6.12567,0.0448 0.17823,-6.26836 5.91179,-14.0448 10.3552,-14.0448 2.41297,0 2.36727,1.2356 -0.12925,3.49492 -5.10945,4.62399 -5.88283,25.03219 -1.07825,28.45336 20.36721,14.50273 37.19641,3.44039 55.59636,-36.54515 3.01195,-6.54538 5.47628,-12.69169 5.47628,-13.65846 0,-2.50287 -12.17068,-14.48142 -20.90683,-20.57679 l -7.40683,-5.16788 h 5.05529 c 3.6913,0 6.60556,0.81549 10.80104,3.02245 6.71259,3.53102 6.06492,3.85675 8.99295,-4.52277 3.35954,-9.61439 10.98508,-18.70493 9.01731,-10.74968 -1.67738,6.78123 -1.79638,26.90072 -0.19177,32.4204 2.61293,8.98818 4.02633,9.6598 13.36875,6.35265 21.00759,-7.43655 32.14863,-19.6683 49.80813,-54.68438 4.80939,-9.53627 10.98651,-20.84546 13.72694,-25.13154 2.74043,-4.28608 4.73755,-8.03793 4.43804,-8.33745 -1.16009,-1.16008 -8.49915,-2.32304 -14.8038,-2.34582 -9.75903,-0.0353 -16.3377,-2.7839 -10.64922,-4.44934 7.72581,-2.26191 21.44849,-1.85917 27.25677,0.79995 5.7356,2.62584 5.80058,2.63174 7.18668,0.6528 3.81501,-5.44669 13.35645,-8.97754 33.80655,-12.51026 20.94028,-3.6174 34.5,-8.91688 34.5,-13.48347 0,-2.26111 -16.59337,-7.15937 -29.08218,-8.58488 -19.87449,-2.26854 -51.89137,8.90187 -69.01052,24.07716 -3.07421,2.72514 -4.64487,3.28844 -10.88321,3.90315 -19.45888,1.91743 -32.02409,11.61281 -32.02409,24.70994 0,0.42675 3.17888,3.31228 7.06418,6.4123 3.88529,3.10001 7.55752,6.71918 8.16051,8.04259 1.79839,3.94703 5.94641,2.61481 14.25874,-4.57946 8.43691,-7.3021 11.02452,-5.32522 3.26657,2.49559 -2.8875,2.9109 -7.68751,9.27448 -10.66668,14.14131 -2.97918,4.86682 -6.80418,11.09365 -8.5,13.83741 l -3.08332,4.98864 -0.53241,-10.48864 c -0.75204,-14.81551 -4.06568,-20.51134 -13.86681,-23.8357 -21.30243,-7.22538 -61.3569,21.43769 -66.40578,47.52011 -0.53263,2.75152 0.0581,4.01361 4.44653,9.5 6.49511,8.12017 7.85847,10.83612 7.85847,15.65484 0,3.23877 -2.37207,7.63245 -3.27417,6.0646 -0.1242,-0.21587 -1.3188,-2.56382 -2.65466,-5.21765 -8.23816,-16.36608 -25.60098,-16.51996 -42.09063,-0.37305 -12.25042,11.9958 -20.1866,31.22968 -13.73054,33.2769 7.96827,2.52676 15.75,11.16796 15.75,17.48955 0,7.05541 -1.12026,7.73221 -3.57856,2.16199 -7.77997,-17.62856 -32.55094,-12.49363 -42.35677,8.7804 -4.81793,10.45262 -6.16034,18.32925 -6.77278,39.73936 -0.30285,10.5875 -0.87019,19.25 -1.26075,19.25 -1.18351,0 -3.03114,-4.90509 -3.03114,-8.04705 0,-2.3973 -0.42337,-2.9519 -2.25,-2.94737 -12.74069,0.0316 -22.04757,11.53073 -22.18267,27.40788 l -0.0673,7.91347 5,1.15076 c 7.84032,1.80446 12.96054,5.52231 7.60534,5.52231 -38.042215,0 -31.272265,50.31983 10.50688,78.09574 1.88474,1.25303 1.02322,1.40706 -8,1.43028 -8.58128,0.0221 -11.24768,0.44976 -17.612225,2.82493 -13.56229,5.06129 -13.91236,4.77344 -5,-4.11132 7.597455,-7.57392 7.700955,-9.28334 1.04624,-17.27979 -4.60151,-5.52928 -11.89642,-17.11915 -13.37193,-21.24481 -1.12795,-3.15386 -8.43734,1.93423 -11.60931,8.08127 -5.98122,11.59118 0.27529,40.62968 11.19374,51.9537 3.6472,3.78268 2.80064,4.0485 -3.71473,1.16644 -6.24832,-2.76393 -6.61882,-1.98279 -2.67106,5.63138 6.62104,12.77022 15.49837,17.62342 33.426305,18.27401 12.6446,0.45887 15.0935,1.94597 8.18852,4.97253 -7.77326,3.40713 -7.95775,4.32699 -1.43092,7.13475 7.25327,3.12027 11.80841,3.83652 25.19315,3.96132 l 11.74997,0.10957 z m 327.0641,4.85765 5.16254,-1.10716 -10.19572,-5.41277 c -5.60764,-2.97703 -11.84613,-6.53963 -13.86331,-7.9169 l -3.66761,-2.50412 -1.17315,3.77406 c -2.48343,7.98929 -1.759,13.09371 1.92315,13.55066 6.87474,0.85315 16.86617,0.67737 21.8141,-0.38377 z M 306.62684,626.66912 c 28.45382,-7.47568 41.14737,-29.07167 32.11154,-54.63247 -2.45249,-6.93765 -2.23958,-7.62702 1.49452,-4.83911 8.00135,5.97388 11.02415,27.69843 5.76204,41.41126 -1.23727,3.22427 14.9488,5.88362 24.71753,4.06105 13.04428,-2.4337 25.24716,-11.89382 31.99036,-24.80012 6.73059,-12.88216 6.73299,-13.10531 0.28589,-26.62505 -3.09029,-6.48043 -7.22338,-16.83043 -9.18464,-23 -5.38675,-16.94519 -4.58055,-15.80905 -7.78357,-10.96896 -4.14008,6.25608 -7.51064,16.51048 -8.23205,25.04468 l -0.64099,7.58292 -1.9552,-5.14569 c -13.30584,-35.01812 -75.52667,-22.78831 -77.52252,15.23743 -0.501,9.54532 0.77922,11.72521 10.93724,18.62339 6.67012,4.5296 9.11877,10.68477 2.58056,6.48676 -1.21815,-0.78215 -4.46482,-1.71858 -7.21482,-2.08096 -11.54766,-1.52171 -13.5,-3.12194 -13.5,-11.06521 0,-28.97784 -44.41513,-35.54699 -67.74554,-10.0198 l -4.95052,5.41666 -1.15705,-5.0126 c -0.64457,-2.79245 -2.99063,-7.62656 -5.29686,-10.91431 l -4.13981,-5.90171 h -6.19618 c -20.6349,0 -32.14815,14.43101 -30.02016,37.62802 l 0.6539,7.12803 3.67611,-0.85417 c 6.50019,-1.51036 21.33619,-0.96045 34.17611,1.26677 17.88967,3.10315 37.43013,3.12992 45,0.0617 3.025,-1.22611 5.65031,-2.22952 5.83403,-2.2298 0.18372,-2.7e-4 -1.05859,1.75783 -2.76069,3.9069 -4.259,5.37738 -11.07334,17.20329 -11.07334,19.21713 0,1.78546 10.38958,5.06899 21.65947,6.84527 9.24241,1.45673 29.68772,0.48583 38.49464,-1.82801 z m 317.84589,-5.46673 C 754.89545,587.1409 784.49445,392.05816 667.97275,334.49982 566.58608,284.41775 451.34774,395.23684 476.49467,518.63493 491.3553,591.5573 558.85096,638.34031 624.47273,621.20239 Z m -7.19319,-33.17978 c -48.18098,-9.13283 -63.71399,-57.56705 -43.7912,-136.54746 14.86965,-58.94818 40.77354,-82.69367 82.30871,-75.45054 48.6229,8.47911 65.6016,52.66138 48.998,127.50267 -13.8895,62.60681 -44.9225,92.56893 -87.51551,84.49533 z m 21.58021,-10.471 c 25.4206,-4.16298 43.4513,-28.72204 54.5032,-74.23692 16.9708,-69.89127 2.0601,-110.63285 -42.7343,-116.76606 -35.02997,-4.79627 -57.3435,20.87843 -69.07381,79.47865 -15.32401,76.55294 6.88794,119.78082 57.30491,111.52433 z M 529.92273,616.7433 c -0.5225,-0.43119 -3.65,-2.56869 -6.95,-4.75 -37.99747,-25.11644 -63.85862,-82.17633 -61.17039,-134.96602 5.13569,-100.85149 89.85083,-179.55435 176.63131,-164.09566 10.801,1.92404 10.8119,1.7698 0.2305,-3.25874 -33.80386,-16.06442 -78.47511,-14.52841 -115.45376,3.96985 -116.44645,58.25138 -134.84815,229.01225 -31.22153,289.72406 11.95295,7.00288 43.83282,18.24459 37.93387,13.37651 z M 54.916025,578.30477 c 2.87858,-4.10976 2.0146,-6.42985 -6.95454,-18.67537 -2.95916,-4.04012 -3.18295,-8.02326 -0.62806,-11.17842 l 1.86071,-2.29788 1.16832,3.54004 c 2.88774,8.74994 11.44153,11.72977 12.45459,4.33873 0.91959,-6.70914 4.14159,-13.3816 8.72088,-18.06013 l 3.96952,-4.05554 -2.98561,-5.94446 c -3.42156,-6.81244 -12.75101,-18.74673 -14.03475,-17.95334 -0.47379,0.29282 -1.63253,2.88961 -2.57499,5.77064 -0.94245,2.88103 -2.64859,7.03824 -3.79142,9.23824 l -2.07789,4 -0.58327,-4.77046 c -0.6185,-5.05862 -4.16169,-9.98814 -5.88719,-8.19065 -4.18617,4.36081 -7.61956,41.7208 -4.74338,51.61452 3.16201,10.87693 12.29235,18.04182 16.08708,12.62408 z M 168.73283,564.35198 c 3.88866,-4.81418 4.54809,-10.52159 2.06438,-17.86733 l -1.87406,-5.54264 6.52479,3.27304 c 12.86375,6.45284 40.57963,8.55449 50.22701,3.80862 l 3.70222,-1.82125 -2.42592,-2.88304 c -4.40157,-5.23096 -5.39831,-12.95393 -2.03239,-15.74739 1.09699,-0.91043 1.61374,-0.38249 2.60331,2.6597 8.68576,26.70233 35.89658,24.6519 65.20056,-4.91309 7.5625,-7.62986 13.75,-13.42109 13.75,-12.86941 0,4.492 -4.95026,12.91256 -13.03542,22.17368 -9.87917,11.31606 -9.87444,11.30092 -3.45725,11.05819 6.70841,-0.25374 13.09492,-3.08152 23.77185,-10.52554 15.7287,-10.96614 15.91233,-11.01984 39.72082,-11.61542 19.87751,-0.49725 20.67146,-0.59702 26.14662,-3.28579 8.01045,-3.93381 8.31086,-4.45707 6.86734,-11.96153 -0.66286,-3.44602 -1.4453,-15.1843 -1.73875,-26.08506 l -0.53354,-19.81956 -4.99416,-7.68044 c -5.79196,-8.90737 -16.15828,-19.26918 -27.74266,-27.73059 -8.91274,-6.51001 -8.68445,-8.70188 0.36696,-3.52319 7.72026,4.41708 9.75238,4.12249 14.6949,-2.13027 27.33749,-34.58453 14.88458,-92.60779 -21.31671,-99.32333 -3.61589,-0.67076 -5.28296,-2.47306 -2.28751,-2.47306 12.26571,0 30.71509,-14.9746 53.06438,-43.07018 l 13.78116,-17.32448 -3.81892,-3.3012 c -15.82976,-13.68374 -51.35043,2.62307 -57.06173,26.19586 -0.704,2.90569 -0.66598,2.94618 1.20948,1.28814 4.80789,-4.25052 16.63035,-6.32105 21.42888,-3.75296 3.02804,1.62056 2.33774,2.39654 -3.31574,3.72729 -22.22567,5.23159 -36.58243,23.7682 -44.15418,57.00928 l -1.42859,6.27175 9.00189,9.69327 c 4.95105,5.3313 9.6682,11.05901 10.48256,12.72825 1.26074,2.58421 0.83959,2.34138 -2.83551,-1.63492 -34.42648,-37.24789 -107.19163,3.60343 -84.32252,47.33978 l 2.45559,4.69623 -5.43418,-2.48784 c -22.23422,-10.17917 -56.93733,6.24866 -63.95998,30.2775 -0.54984,1.88135 -0.13724,2.23903 3.24124,2.80982 10.92703,1.84611 15.20952,8.52383 5.48886,8.55886 -24.6176,0.0887 -35.45004,11.19987 -47.4767,48.69835 -5.52801,17.23602 -6.80848,19.35692 -6.80848,11.2772 0,-5.57727 0.006,-5.57166 -3.90122,-3.55108 -23.42654,12.11433 -6.55756,54.30947 21.2969,53.2709 5.47457,-0.20412 6.10773,-0.48234 8.86442,-3.89512 z m 76.36722,-35.85575 c -7.09564,-8.4327 -5.66047,-27.37827 3.13961,-41.44555 6.24576,-9.9841 -0.81949,-5.60429 -17.76693,11.01388 -24.78312,24.3016 -37.37772,29.35312 -53.5,21.45809 l -5,-2.44848 3,-0.65513 c 1.65,-0.36032 7.05,-0.71088 12,-0.77902 27.73371,-0.38178 32.7245,-20.40519 6.5,-26.0785 -8.65717,-1.87286 -8.80383,-1.95348 -6.55887,-3.60566 4.31144,-3.17302 14.28422,-0.96879 22.5792,4.99056 l 4.74984,3.41242 4.86492,-2.29625 c 4.88787,-2.30708 8.38414,-5.58899 16.25349,-15.25699 l 4.25024,-5.22168 -3.81941,-7.27531 c -2.22131,-4.23121 -6.27013,-9.72728 -9.67655,-13.13546 -8.23533,-8.23957 -3.77442,-12.67612 5.17442,-5.14616 4.64524,3.90871 5.08083,3.36377 5.39519,-6.74971 0.40157,-12.91887 3.20306,-9.22306 5.21217,6.87607 2.12457,17.02425 2.48013,17.36537 18.07536,17.34096 15.43289,-0.0242 22.12833,-7.14988 28.89366,-30.75053 6.04468,-21.08671 14.02987,-31.10808 24.85634,-31.19454 1.5125,-0.0121 2.75,-0.26192 2.75,-0.5552 0,-1.98135 -5.4585,-10.66215 -8.24007,-13.10439 -3.04505,-2.67359 -4.92916,-3.65681 -11.25993,-5.87597 l -2,-0.70107 2,-0.82238 c 5.60666,-2.3054 10.14066,-0.44177 19.99677,8.21936 3.84822,3.38165 8.9467,7.01101 11.32996,8.06524 l 4.3332,1.91678 -6.22937,2.94603 c -21.41883,10.12951 -36.47327,40.1345 -28.93208,57.66448 6.24636,14.52004 27.19304,23.3701 39.50152,16.68955 6.66278,-3.61629 10.5,-4.72485 10.5,-3.03342 0,2.49288 -8.51023,10.52108 -11.86378,11.19179 l -3.24923,0.64984 2.72145,2.84059 c 3.87375,4.04332 8.41122,5.24713 17.3062,4.5914 7.44346,-0.54873 7.52924,-0.52862 4.58536,1.07514 -8.65986,4.7177 -20.94478,1.70728 -43.14754,-10.57331 -29.37057,-16.24517 -38.51708,-17.2214 -49.66714,-5.30109 -11.4977,12.29198 -10.80858,18.74115 1.55252,14.5293 2.52677,-0.86096 6.31943,-1.42346 8.42814,-1.25 l 3.83402,0.31537 -8.7293,5.30462 c -20.14977,12.24461 -26.13772,21.20925 -21.79545,32.63028 1.26791,3.33485 0.76651,3.23534 -2.34793,-0.46595 z M 93.801015,481.90499 c 7.857325,-14.27651 7.527155,-12.85851 3.01739,-12.95905 -4.35222,-0.097 -10.34568,-5.80041 -10.34568,-9.84496 0,-3.81811 1.58863,-3.95585 7.3838,-0.64018 16.336365,9.34672 30.197905,-18.4064 21.071665,-42.18898 -0.48207,-1.25628 0.19161,-1.42593 3.97083,-0.99996 5.43214,0.61228 9.0807,-2.56581 16.30082,-14.19889 4.90964,-7.91042 4.86725,-8.13873 -1.67792,-9.03892 -8.24127,-1.13347 -8.22559,-3.01939 0.0365,-4.38384 12.87927,-2.12697 27.91431,-15.16765 27.91431,-24.21158 0,-3.54575 -15.33955,-0.41954 -27.33626,5.57114 -14.13382,7.05788 -15.43209,6.506 -5.95915,-2.53317 11.5918,-11.06099 26.28223,-16.94932 42.28584,-16.94932 h 7.67051 l 8.54179,-10.75 c 19.96724,-25.12915 21.39229,-27.71559 16.0788,-29.18271 -8.3615,-2.30872 -17.27821,3.68882 -23.72562,15.95828 -2.01573,3.83593 -3.93069,6.97443 -4.25547,6.97443 -0.9608,0 0.47739,-13.71636 1.67229,-15.94904 1.67899,-3.13723 -0.8111,-2.66226 -10.64212,2.02989 -8.92372,4.25911 -16.84074,5.07433 -11.8294,1.21808 5.14329,-3.95779 24.23808,-11.93907 47.25567,-19.75203 65.43966,-22.21246 76.02108,-30.76361 54.72004,-44.22081 -2.46034,-1.55435 -4.47415,-3.38859 -4.47513,-4.07609 -0.003,-1.75575 1.33617,-1.5564 4.11335,0.61255 11.72846,9.15981 19.11547,8.09101 34.2582,-4.95672 0.48034,-0.41388 -1.88216,-2.14349 -5.25,-3.84357 -8.67896,-4.38112 -8.06423,-7.9911 1.00353,-5.89327 14.48517,3.35115 33.20699,-0.82111 56.88619,-12.67741 18.0457,-9.03557 24.67556,-11.83826 35.19645,-14.87886 l 8.29049,-2.396 -4.5,-1.14352 c -7.63951,-1.94131 -12.67722,-4.05905 -14.53252,-6.10914 -4.20316,-4.64443 10.41663,-1.82409 25.31228,4.88306 13.3457,6.00924 16.34951,6.51776 20.43176,3.45893 16.32106,-12.22936 32.13521,-13.09241 76.78848,-4.19068 28.62417,5.70629 58.3729,2.465 49,-5.33882 -18.47758,-15.38431 -62.00826,-19.92355 -92.79965,-9.67683 -8.21991,2.73541 -8.58258,2.05171 -2.18338,-4.11608 3.26654,-3.1484 4.92313,-5.44354 4.34577,-6.0209 -1.81312,-1.81312 -12.0136,-3.07476 -24.36274,-3.01329 -26.45064,0.13166 -35.85274,3.66356 -27.0593,10.16483 1.68261,1.24401 3.0593,2.85221 3.0593,3.57378 0,1.96097 -3.44554,1.58209 -5.41632,-0.59559 -6.99376,-7.72803 -29.51554,-9.79471 -50.08684,-4.59615 -15.19542,3.84002 -36.022,17.50011 -26.68782,17.50447 4.52217,0.002 19.85714,9.66638 18.11024,11.41328 -0.23207,0.23208 -2.82101,-0.20035 -5.75319,-0.96095 -43.53475,-11.29277 -90.9947,8.31724 -109.54658,45.26364 -3.70821,7.38496 -3.53661,7.90878 2.80544,8.56334 6.76379,0.69808 14.03132,3.83537 15.5776,6.72463 1.12589,2.10374 1.03792,2.16299 -2.16447,1.45775 -39.73716,-8.75095 -83.14976,18.73748 -108.08806,68.44029 l -4.75,9.4669 v -7.62582 c 0,-9.83807 -0.65741,-10.05581 -9.28791,-3.0763 -17.649915,14.27355 -22.655145,21.55808 -21.250165,30.92716 l 0.7016,4.67861 3.66824,-3.7898 c 5.819945,-6.01283 14.187605,-9.0217 18.139275,-6.52258 1.77646,1.12347 1.69552,1.20618 -3.97104,4.05775 -14.053675,7.0722 -21.805515,20.33555 -19.058755,32.60939 1.42364,6.36147 1.65131,6.42802 6.11258,1.7866 3.722295,-3.87259 7.875375,-6.41468 10.479845,-6.41468 2.46575,0 1.48229,1.37607 -4.15315,5.81115 -13.319775,10.48262 -21.374245,31.24467 -26.829665,69.1589 -1.4617,10.15853 -2.85463,18.66705 -3.0954,18.90782 -0.9304,0.93041 -6.37266,-12.9597 -9.84094,-25.11676 -7.18879,-25.19818 -8.25352,-26.93962 -12.27526,-20.07703 -8.44985,14.41856 -11.84958,35.60975 -7.37984,45.99994 2.50462,5.82214 6.72433,10.50434 7.40427,8.21578 2.23145,-7.51069 4.26187,-11.23278 7.94474,-14.56399 l 4.19157,-3.79134 0.61179,7.49668 c 0.71539,8.76625 3.16362,14.23745 8.44648,18.87587 l 3.6761,3.22765 4.71111,-9.82233 c 2.59111,-5.40229 7.71338,-15.27737 11.38281,-21.94463 z M 754.72365,456.02728 c 0.1389,-8.5126 -0.1664,-10.66933 -2.0525,-14.5 -1.2688,-2.57691 -1.9981,-3.43162 -1.7066,-2 0.28,1.375 0.8182,9.475 1.1961,18 0.7709,17.39012 2.2692,16.51327 2.563,-1.5 z m -677.650675,-24 c 8.4364,-27.17079 9.06093,-32.38997 4.93599,-41.25 -3.16973,-6.80831 -3.54812,-6.68776 -7.8471,2.5 -9.08797,19.42276 -10.63034,46.70779 -3.37754,59.75 0.95998,1.72627 1.21147,1.24723 1.83746,-3.5 0.39889,-3.025 2.40193,-10.9 4.45119,-17.5 z m 309.399755,14.9569 c 0,-4.0969 5.00822,-26.45154 8.04577,-35.91302 3.40747,-10.61371 3.8316,-9.75843 -3.68713,-7.43546 -11.50922,3.55586 -20.67102,11.87942 -21.98443,19.97299 -0.52468,3.23323 0.16297,4.58673 7.71124,15.17802 8.19486,11.49855 9.91455,12.92041 9.91455,8.19747 z m 355.74382,-56.7069 c -1.0027,-25.69172 -11.5481,-48.73158 -27.2438,-59.52298 -7.2138,-4.95971 -7.2029,-1.90834 0.033,9.19193 7.3431,11.26527 14.7461,27.06462 19.1926,40.96013 4.2334,13.2298 7.6169,22.62092 8.1501,22.62092 0.2121,0 0.1529,-5.9625 -0.1315,-13.25 z M 408.074,378.32617 c 4.68447,-9.30211 12.04919,-21.19575 19.48522,-31.46761 3.25243,-4.4928 5.91351,-8.36639 5.91351,-8.60798 0,-0.2416 -4.05484,-0.99339 -9.01076,-1.67064 -10.46085,-1.42955 -16.12286,-2.8231 -12.05369,-2.96671 6.32573,-0.22324 8.60361,-5.97157 3.59339,-9.06807 -4.15119,-2.56557 -10.16248,-9.31395 -13.3088,-14.94068 -2.90219,-5.19014 -1.83174,-5.13278 5.43078,0.29102 8.77496,6.55332 11.42973,7.63178 18.78664,7.63178 h 6.53688 l 6.26261,-7.75 c 10.27892,-12.72021 13.26871,-15.17967 21.51398,-17.69793 1.67784,-0.51244 0.99295,0.60413 -2.68965,4.38491 -5.73866,5.89167 -10.66685,15.42354 -11.66427,22.5605 -0.81639,5.84159 -0.99599,5.91145 9.10289,-3.54087 7.47982,-7.00093 20.30855,-16.53833 31.18903,-23.1872 9.79758,-5.98712 9.57983,-5.2199 3.40033,-11.98126 -22.96649,-25.129 -73.96603,-15.75326 -111.82171,20.55727 -15.02103,14.40791 -19.25552,29.65458 -8.23603,29.65458 7.05695,0 12.1933,7.82953 20.0123,30.5055 4.77243,13.84055 5.93625,16.26339 10.07837,20.981 3.8814,4.42067 3.23529,4.73924 7.47898,-3.68761 z m 288.94985,-65.65388 c -4.1732,-11.82809 -17.6395,-24.57232 -19.0721,-18.04949 -0.6423,2.92444 -0.1079,3.63659 9.6705,12.88545 11.6152,10.98619 11.4175,10.87758 9.4016,5.16404 z m -35.075,-22.33965 C 685.59955,186.34812 622.93018,80.809102 523.77632,57.641904 504.91302,53.234513 447.52576,49.659505 461.47273,53.760627 561.85963,83.279513 606.05971,163.8911 580.55506,270.94159 l -1.74471,7.32303 10.08119,0.69272 c 21.61004,1.4849 47.46653,7.54438 62.04581,14.54046 4.4194,2.12075 8.3368,3.89496 8.7052,3.94269 0.3684,0.0477 1.4062,-3.1508 2.3063,-7.10785 z M 515.97273,278.10912 c 12.21565,-4.9879 26.51888,-8.85318 39.70882,-10.73084 l 8.70882,-1.23975 1.06255,-4.9545 c 4.87375,-22.72547 4.66529,-26.93612 -1.41783,-28.63929 -5.48296,-1.53513 -5.33126,-1.93121 1.08989,-2.84569 l 4.84775,-0.6904 0.29662,-7.38015 0.29663,-7.38015 -14.29663,0.55107 c -23.18018,0.8935 -41.78095,5.16034 -59.04662,13.54472 -11.23781,5.4572 -11.82208,5.18309 -4.25,-1.99394 7.56831,-7.17345 7.42593,-10.19876 -0.6481,-13.77028 -20.66944,-9.14308 -51.36983,-8.70404 -64.66195,0.92472 -6.48006,4.69413 -6.28595,4.83181 19.53513,13.85734 17.76799,6.21063 25.16141,9.94683 28.03248,14.16596 2.95768,4.34639 2.49996,4.54842 -3.48938,1.54015 -18.5111,-9.2976 -54.0964,-7.94796 -55.07255,2.08872 -0.20897,2.14861 0.653,4.63916 2.75,7.94578 1.6799,2.64894 3.05437,5.85315 3.05437,7.12047 0,2.74566 -0.45601,2.71963 11.76077,0.67125 20.35134,-3.4123 41.63299,-1.94061 47.39929,3.27782 2.79436,2.52887 5.49683,1.15111 18.86648,-9.61839 14.20617,-11.44333 20.54536,-15.04102 26.4198,-14.99405 l 4.05366,0.0324 -7,3.50153 c -12.8107,6.40815 -19.68295,15.57861 -21.54466,28.74964 -0.94722,6.70122 -0.26668,12.06491 1.43062,11.27551 0.61272,-0.28498 6.06404,-2.53932 12.11404,-5.00966 z m 53.10647,-82.33184 c -11.344,-97.515733 -99.7758,-147.178656 -157.40061,-88.3955 -10.05584,10.25796 -29.35166,40.7806 -26.96895,42.66019 0.1447,0.11414 5.89663,1.13904 12.78208,2.27755 6.88544,1.13851 17.23544,3.63119 23,5.53929 8.84995,2.92938 12.41133,3.56256 22.88502,4.06871 43.20509,2.08793 90.06721,16.26355 114.09599,34.51361 4.13552,3.14096 7.55044,4.96397 9.38768,5.01148 l 2.88768,0.0747 z"
         id="path1"
         sodipodi:nodetypes="sssssssssssscsssscscsssssssssssssssssssscsssssssssssssssssssscssscssscsssssssssssssssscsssssssssssssssssscssssssssssssssssssssssssscssssssssssssssssscsssssssssssssssscsscsscssssssssssssscssssssscsscsscssssssssssssssssssssssssssssssssscssscsssscsssssscsscsssssssssssscssssssscsssssscsssscsssssscsssssscssssscsscssssssssssscssscssssscssssssscsssssssssssssssscssssssssscsssssscsssssssssssssscssssscscssscsssssssssssssscsscssssssssssssssssssscscssccssssssssscsssssssssssssssscssscssscsscssscccssssssssssssssscssssssssssssscs" />
      <path
         style="fill:#ffd5e5;stroke-width:0;stroke-linecap:round;stroke-linejoin:round;stroke-opacity:0.995668"
         d="m 503.10649,282.71758 c -1.13657,-1.13657 -1.21132,-7.80739 -0.14613,-13.04103 1.61254,-7.92297 4.74835,-13.72601 10.24246,-18.95436 3.15693,-3.00423 6.89216,-5.47227 12.97781,-8.57504 l 4.95145,-2.52451 -3.02016,-0.0761 c -3.62942,-0.0914 -5.71001,0.33106 -8.82996,1.79311 -4.33459,2.03126 -9.21295,5.4095 -18.74288,12.97933 -10.26586,8.15439 -14.22432,10.77536 -16.27413,10.77536 -0.59746,0 -1.54286,-0.44635 -3.03075,-1.4309 -4.97146,-3.28966 -12.52206,-4.64163 -25.70859,-4.60325 -8.79922,0.0256 -12.79638,0.37236 -23.17068,2.00997 -3.77487,0.59587 -7.47433,1.04764 -8.22102,1.00393 l -1.35763,-0.0795 -0.18606,-1.68687 c -0.19408,-1.75951 -1.25634,-4.19152 -3.95379,-9.05213 -1.60089,-2.88469 -2.15459,-5.08624 -1.67871,-6.6746 1.09798,-3.66474 7.03722,-6.29417 16.42299,-7.27083 4.5404,-0.47246 15.07875,-0.17898 19.85379,0.55291 7.36704,1.12917 12.52388,2.62873 18.28374,5.31674 4.26292,1.98941 5.57071,2.34136 5.57071,1.49919 0,-0.86675 -2.48156,-4.42323 -3.92761,-5.6289 -4.04564,-3.37315 -10.53196,-6.35957 -24.80001,-11.41838 -17.86648,-6.33466 -21.87201,-7.9406 -23.35921,-9.36543 -0.40885,-0.3917 -0.74336,-0.9219 -0.74336,-1.17822 0,-0.67737 2.84126,-3.14086 5.32711,-4.61882 13.10533,-7.79179 38.64242,-8.47055 58.07648,-1.54364 5.82783,2.07722 9.3887,4.12737 10.32985,5.94736 1.13515,2.19513 0.007,4.12322 -5.99522,10.24938 -2.2695,2.31623 -4.12636,4.40855 -4.12636,4.6496 0,0.95969 2.10879,0.22825 9.43396,-3.27218 12.44574,-5.94736 25.14125,-9.7661 39.14082,-11.77335 8.0225,-1.15026 12.67721,-1.49495 29.56223,-2.18915 l 4.41733,-0.18161 -0.17572,4.81677 c -0.0966,2.64922 -0.24788,5.92201 -0.33608,7.27287 l -0.16037,2.45609 -3.29597,0.46069 c -5.03114,0.70321 -6.21423,1.01211 -6.21423,1.62249 0,0.41047 0.51476,0.68215 2.56064,1.35143 1.40836,0.46073 2.93008,1.05695 3.3816,1.32494 2.41352,1.43249 3.01227,4.62643 2.13824,11.4061 -0.32243,2.50105 -2.56539,14.16124 -3.85041,20.01666 l -0.2047,0.93278 -6.86444,0.99522 c -10.78608,1.56379 -19.52241,3.5153 -28.83021,6.44006 -5.67096,1.78196 -9.8509,3.34265 -18.30642,6.83518 -5.77944,2.38719 -6.84285,2.74817 -7.1604,2.43062 z"
         id="path30" />
      <path
         style="fill:#ffd5e5;stroke-width:0;stroke-linecap:round;stroke-linejoin:round;stroke-opacity:0.995668"
         d="m 402.33104,383.65873 c -3.57555,-3.69155 -5.98884,-7.45081 -7.94037,-12.36895 -0.44207,-1.11408 -1.98141,-5.35936 -3.42075,-9.43397 -4.7754,-13.51852 -7.61852,-20.06287 -10.77775,-24.80841 -3.07929,-4.62545 -5.51359,-6.29608 -9.74448,-6.68752 -2.63898,-0.24415 -3.72971,-0.68346 -4.7718,-1.92191 -1.35137,-1.60601 -1.55603,-3.58105 -0.71487,-6.8989 2.2572,-8.90329 11.83141,-20.17631 26.6839,-31.41855 15.40713,-11.66207 33.49838,-19.88712 49.6735,-22.58369 5.24886,-0.87504 7.81849,-1.09021 13.04783,-1.09257 11.57844,-0.005 20.7727,2.49474 28.95307,7.87247 2.90204,1.9078 9.64576,8.43469 10.85357,10.5046 1.25879,2.15732 1.30355,2.11497 -9.18087,8.68741 -11.2024,7.02253 -21.49768,14.83963 -30.56805,23.21 -5.25506,4.8495 -6.71419,6.05754 -7.3166,6.05754 -0.59278,0 -0.59972,-0.44008 -0.0595,-3.77358 1.06726,-6.58572 5.1937,-15.07047 9.99087,-20.54317 0.87263,-0.99551 2.40533,-2.74246 3.406,-3.88211 1.79714,-2.04672 2.18303,-2.79844 1.43658,-2.79844 -0.21057,0 -1.45383,0.37402 -2.76281,0.83117 -6.96786,2.43344 -10.09316,5.31585 -22.58462,20.82937 l -3.22351,4.00339 -5.80613,-0.1322 c -4.15649,-0.0946 -6.22734,-0.25356 -7.28862,-0.55932 -2.55869,-0.7372 -5.68734,-2.47486 -9.85467,-5.47333 -7.90723,-5.68939 -9.046,-6.31256 -9.2282,-5.04997 -0.0923,0.63951 1.56805,3.93204 3.17933,6.30475 2.88215,4.24416 7.2428,8.94718 10.59319,11.42491 1.09794,0.81197 2.31257,1.85223 2.69918,2.31168 1.37188,1.63039 1.20152,3.76471 -0.42625,5.34011 -1.11637,1.08047 -2.36257,1.59215 -4.45395,1.82876 -4.12269,0.46643 -0.70538,1.44286 11.26961,3.22007 6.99855,1.03866 9.15977,1.45662 9.15977,1.77144 0,0.10839 -1.57308,2.42246 -3.49574,5.14239 -10.77671,15.24549 -16.38335,24.25276 -22.23618,35.72319 -1.30001,2.54777 -2.65423,4.90528 -3.00936,5.23892 l -0.64571,0.60661 z"
         id="path31" />
      <path
         style="fill:#ffd5e5;stroke-width:0;stroke-linecap:round;stroke-linejoin:round;stroke-opacity:0.995668"
         d="m 155.12129,567.88156 c -6.87123,-1.08789 -13.81604,-5.13399 -18.5312,-10.79633 -8.60343,-10.3317 -11.2888,-23.6438 -6.67628,-33.09601 2.12956,-4.364 5.95538,-7.86019 10.75576,-9.82904 1.42425,-0.58416 1.64299,-0.0595 1.67536,4.01802 0.0299,3.76962 0.19187,4.68972 0.8477,4.81603 0.8395,0.16167 1.84234,-2.39272 6.75226,-17.19908 10.01124,-30.1899 18.70421,-41.82631 34.13189,-45.68895 3.24527,-0.81252 5.98064,-1.15342 11.62555,-1.44884 4.83795,-0.2532 5.99429,-0.57491 6.45891,-1.79696 0.48698,-1.28085 -0.37486,-2.63126 -2.56555,-4.01993 -2.06707,-1.31031 -3.93709,-2.00668 -7.6107,-2.83414 -1.85022,-0.41675 -3.54278,-0.93647 -3.76125,-1.15494 -0.34993,-0.34993 -0.33088,-0.61996 0.15998,-2.26819 0.77609,-2.60597 2.96434,-6.97422 4.95299,-9.88732 1.87448,-2.74586 6.32491,-7.50257 9.28646,-9.92557 6.8248,-5.58373 16.4942,-10.15609 24.91325,-11.78072 4.07694,-0.78673 8.58833,-1.17093 11.41237,-0.97191 5.69313,0.40123 9.35014,1.36975 15.09434,3.99757 1.77897,0.81383 3.26854,1.3881 3.31015,1.27615 0.0416,-0.11195 -0.82931,-1.97282 -1.93537,-4.13528 -3.32726,-6.5051 -4.57493,-11.22869 -4.57281,-17.31245 0.002,-5.98045 1.0215,-10.1618 3.87718,-15.90297 4.71546,-9.48012 13.16575,-17.37797 24.38823,-22.79386 6.02253,-2.90643 10.70047,-4.41302 17.25068,-5.5558 3.39187,-0.59176 13.2358,-0.67199 16.30727,-0.1329 3.21271,0.56388 7.74576,1.82205 10.37736,2.88029 5.77938,2.32405 10.00038,5.20352 15.56184,10.61596 2.19367,2.13489 4.07082,3.79929 4.17145,3.69867 0.36016,-0.36017 -1.25623,-3.04734 -3.53433,-5.87564 -3.00863,-3.73527 -6.82299,-7.98588 -15.49393,-17.26599 l -0.94005,-1.0061 1.02716,-4.51951 c 6.44995,-28.37993 16.63132,-45.29459 32.54763,-54.07249 2.73893,-1.51052 7.21055,-3.21706 11.40417,-4.35225 4.84805,-1.31235 5.5757,-1.65182 5.47073,-2.55228 -0.10474,-0.89848 -2.16614,-2.02988 -4.41053,-2.42072 -5.77085,-1.00495 -14.20994,0.97328 -18.45011,4.32495 -0.76253,0.60274 -1.4648,1.01753 -1.5606,0.92173 -0.34585,-0.34585 1.05148,-4.86468 2.33541,-7.55248 5.90644,-12.3646 19.63112,-22.3062 34.27008,-24.82385 3.5431,-0.60935 9.81191,-0.4007 12.66108,0.42142 2.95289,0.85203 5.73909,2.42209 8.63272,4.86464 1.40836,1.18881 2.59159,2.25183 2.62944,2.36227 0.0821,0.23965 -16.329,20.84767 -20.53197,25.78277 -13.46552,15.81112 -25.3988,26.50787 -34.86869,31.25557 -4.02703,2.01894 -7.44152,3.10279 -9.93614,3.15401 -1.75436,0.036 -2.63585,0.30848 -2.73952,0.84679 -0.12537,0.65099 1.58728,1.42869 4.84545,2.20027 7.31168,1.73152 12.76296,4.71456 18.21926,9.96992 9.12227,8.78633 14.95969,21.99333 16.49595,37.32163 0.36337,3.62562 0.3578,11.01511 -0.0111,14.74943 -0.87814,8.88877 -3.42525,17.79116 -7.31162,25.55482 -3.78797,7.56708 -9.65768,15.13791 -12.45136,16.0599 -1.96281,0.64779 -3.38827,0.24165 -8.7871,-2.5036 -5.57285,-2.83373 -6.90281,-3.36097 -7.35001,-2.91376 -0.67281,0.67281 1.58162,2.88755 7.37818,7.24828 9.198,6.91963 17.07344,14.35958 22.76361,21.50488 1.7023,2.13763 5.59546,7.8109 8.13065,11.84831 l 0.84626,1.34771 0.29142,10.6469 c 0.53313,19.478 1.19229,30.33151 2.20678,36.33651 0.99419,5.88485 0.49102,6.73939 -5.86835,9.96619 -6.21953,3.15585 -7.53707,3.36606 -23.9511,3.82175 -13.18328,0.36598 -16.41627,0.51833 -20.35041,0.959 -6.20149,0.69464 -10.32469,2.34642 -16.84636,6.74876 -10.95599,7.39564 -13.51238,9.03399 -16.44385,10.53866 -5.5686,2.85819 -9.3595,3.92045 -14.17734,3.97258 -3.28066,0.0355 -3.59367,-0.17132 -2.72315,-1.79938 0.33438,-0.62539 2.7431,-3.62358 5.3527,-6.66267 7.23872,-8.43002 10.40242,-12.77889 12.84359,-17.65498 1.40442,-2.80524 2.14646,-5.14388 2.02539,-6.38326 l -0.0849,-0.86886 -1.9123,1.64846 c -1.05177,0.90666 -5.17784,4.84297 -9.16903,8.74735 -3.9912,3.90439 -8.16435,7.89865 -9.27368,8.87612 -10.25233,9.03369 -20.76284,14.89647 -30.18407,16.83668 -3.26668,0.67275 -8.35457,0.61639 -11.15314,-0.12355 -5.57738,-1.47464 -9.80174,-4.64189 -13.1754,-9.87836 -1.61493,-2.50663 -2.08502,-3.48127 -3.43871,-7.12951 -1.63037,-4.39389 -2.18828,-4.85906 -3.72651,-3.10709 -1.0382,1.18242 -1.38694,2.43908 -1.38883,5.00463 -0.003,3.81771 1.33162,7.16596 4.33633,10.8803 l 1.81622,2.24515 -2.60533,1.24574 c -4.74298,2.26782 -8.97194,2.98348 -17.5649,2.97245 -6.36203,-0.008 -9.85604,-0.29835 -16.17251,-1.34321 -8.34754,-1.38086 -13.09003,-2.88587 -20.0422,-6.36029 -2.05422,-1.02661 -3.78418,-1.81731 -3.84437,-1.75712 -0.0602,0.0602 0.32356,1.30558 0.85277,2.76755 3.0802,8.50919 3.16054,13.74577 0.28417,18.52124 -1.45298,2.41229 -3.30155,4.41636 -4.69705,5.09218 -1.11663,0.54076 -1.71817,0.61599 -5.30264,0.66297 -2.22372,0.0292 -4.40701,-0.005 -4.85175,-0.075 z m 93.12669,-36.7138 c 0,-0.1286 -0.381,-1.37186 -0.84666,-2.7628 -0.66879,-1.99766 -0.87419,-3.13598 -0.97769,-5.41844 -0.1169,-2.57806 -0.0551,-3.13289 0.57315,-5.14801 1.78401,-5.72194 7.52452,-11.68614 17.66809,-18.35654 2.31168,-1.52016 6.29147,-4.0256 8.84397,-5.56765 5.37003,-3.24421 5.36909,-3.23058 0.22523,-3.24351 -3.4048,-0.009 -5.32413,0.30167 -9.30597,1.50411 -3.14732,0.95043 -5.56691,1.15293 -6.79766,0.5689 -0.96228,-0.45663 -1.56575,-1.35542 -1.56575,-2.33197 0,-2.11191 3.00032,-7.00568 7.13682,-11.64077 7.90229,-8.85476 14.05461,-10.871 24.35019,-7.98006 5.6711,1.59242 13.69375,5.29765 26.46447,12.22252 22.35201,12.12027 33.58263,14.92747 42.52022,10.62831 1.39904,-0.67297 2.22372,-1.22798 2.22372,-1.49657 0,-0.38043 -0.41824,-0.4016 -3.84097,-0.19446 -11.78955,0.71353 -15.13363,-0.0744 -19.92709,-4.69533 l -2.41807,-2.33103 2.00862,-0.42806 c 2.42446,-0.51667 4.22322,-1.55796 7.28656,-4.21816 3.82687,-3.32325 6.33952,-6.84452 5.55689,-7.78753 -0.79446,-0.95727 -3.28858,-0.2483 -9.00018,2.55836 -4.81893,2.368 -6.04645,2.72898 -9.88986,2.90834 -6.73165,0.31413 -13.12402,-1.59003 -19.58906,-5.8352 -6.21839,-4.08321 -10.76626,-10.02591 -12.4949,-16.32706 -0.8575,-3.12573 -0.86682,-10.64294 -0.0181,-14.55815 0.92528,-4.26815 2.3659,-8.28092 4.64381,-12.93511 3.43729,-7.02304 7.24947,-12.27111 12.75773,-17.56307 4.67514,-4.49156 8.36143,-6.94588 15.33649,-10.21099 1.88694,-0.8833 3.39682,-1.71585 3.35529,-1.8501 -0.0415,-0.13427 -1.10949,-0.69858 -2.37324,-1.25404 -1.26375,-0.55546 -2.95557,-1.40834 -3.7596,-1.89529 -2.28439,-1.38351 -7.07965,-5.01384 -10.62628,-8.0448 -7.50125,-6.41059 -11.89106,-8.58293 -15.9603,-7.89809 -1.70151,0.28636 -4.92918,1.40647 -4.92918,1.71061 0,0.0917 1.3039,0.62655 2.89757,1.1885 7.37397,2.60015 10.09632,4.52689 13.81402,9.77682 2.95147,4.16791 5.27456,8.92041 4.38005,8.96058 -2.73096,0.12262 -6.09496,0.63906 -7.62212,1.17016 -7.43574,2.58589 -13.47327,11.12211 -18.1349,25.64017 -0.66642,2.07547 -2.13804,6.62398 -3.27026,10.10781 -6.66073,20.49486 -13.54424,26.01593 -31.41746,25.19909 -6.5172,-0.29785 -8.66553,-0.96236 -10.26943,-3.17649 -1.37614,-1.89971 -1.86158,-4.07747 -3.46698,-15.5536 -1.25996,-9.00674 -2.50079,-13.39032 -3.72364,-13.15485 -0.80706,0.15541 -1.14091,1.99836 -1.52871,8.43904 -0.51747,8.59415 -0.86356,9.29521 -3.56472,7.22071 -3.92449,-3.01401 -4.74363,-3.57863 -6.17259,-4.25464 -1.87654,-0.88774 -3.92352,-1.02623 -4.63592,-0.31364 -0.73494,0.73514 -0.55695,2.50691 0.43969,4.37679 0.47075,0.88321 2.02003,2.87285 3.44285,4.42142 4.97445,5.41412 7.5834,9.15577 11.14207,15.9795 l 2.2168,4.25072 -2.23697,2.75737 c -6.92181,8.53206 -11.07625,12.9836 -14.20871,15.22481 -0.93704,0.67043 -3.26696,1.98918 -5.17758,2.93055 l -3.47387,1.71158 -3.58252,-2.55195 c -4.10953,-2.92735 -8.4402,-5.18421 -11.93832,-6.22144 -3.15964,-0.93688 -7.69442,-1.19484 -9.8607,-0.56093 -1.38194,0.4044 -3.48162,1.81876 -3.48162,2.34527 0,0.48606 1.56944,1.02583 5.79515,1.99312 8.86068,2.02825 12.98447,3.87262 16.38605,7.32868 1.95599,1.98731 2.75355,3.81945 2.74203,6.29892 -0.008,1.65105 -0.14047,2.27324 -0.72454,3.39473 -2.55434,4.90467 -9.68311,8.29798 -18.90604,8.99932 -1.94734,0.14808 -6.04514,0.38975 -9.10623,0.53703 -5.1197,0.24634 -9.66351,0.88372 -9.66351,1.35554 0,0.29623 7.31697,3.6992 9.60628,4.46772 8.64613,2.9024 16.67808,1.56808 26.26756,-4.36372 6.16216,-3.81176 12.50997,-9.17641 24.36875,-20.59446 5.84901,-5.63162 9.66516,-9.0969 12.69173,-11.52478 2.62001,-2.10175 4.93299,-3.43373 5.30926,-3.05746 0.32587,0.32587 -0.53335,2.18805 -2.94335,6.37915 -5.79583,10.07916 -8.13849,22.54182 -6.02468,32.05049 0.73741,3.31706 2.49972,6.81954 4.58307,9.10846 1.48352,1.62992 2.42171,2.24418 2.42171,1.58555 z"
         id="path32" />
      <path
         style="fill:#ffd5e5;stroke-width:0;stroke-linecap:round;stroke-linejoin:round;stroke-opacity:0.995668"
         d="m 135.84906,648.19863 c -9.55751,-0.26968 -15.38408,-1.50335 -21.75618,-4.60647 -2.09079,-1.0182 -3.04167,-1.74933 -3.04167,-2.33882 0,-0.65878 1.52979,-1.68288 5.04608,-3.37798 3.61721,-1.74377 4.65743,-2.47636 4.65743,-3.28002 0,-1.34968 -2.68269,-1.88547 -11.99461,-2.39561 -19.052007,-1.04369 -27.042593,-5.68954 -33.99918,-19.76763 -1.928218,-3.90215 -2.201377,-5.28924 -1.04161,-5.28924 0.370425,0 2.47363,0.72776 4.673791,1.61725 3.659971,1.47967 5.703924,1.97709 5.703924,1.38814 0,-0.29677 -1.18614,-1.83024 -3.352498,-4.33426 -5.275499,-6.09768 -9.67787,-17.05143 -11.653103,-28.99458 -0.368985,-2.23105 -0.490695,-4.43278 -0.491707,-8.89488 -0.0016,-7.01415 0.311618,-8.79127 2.223822,-12.61787 1.024671,-2.05051 1.658336,-2.8941 3.684078,-4.9045 2.715915,-2.69537 4.779263,-3.98836 6.153162,-3.85585 0.749909,0.0723 0.975115,0.28056 1.568854,1.45075 3.76507,7.42059 8.385757,14.63121 13.215974,20.62364 2.698712,3.34806 4.118631,5.56418 4.548254,7.09865 0.746799,2.66731 -0.444211,4.5975 -7.021703,11.3796 -4.092295,4.21959 -4.974956,5.45353 -4.348892,6.07959 0.380726,0.38071 2.292658,-0.086 6.524972,-1.59266 11.613922,-4.13453 11.484302,-4.10895 22.118622,-4.36513 7.83617,-0.18878 8.87868,-0.28606 8.87868,-0.8284 0,-0.12844 -1.12571,-1.01839 -2.50158,-1.97766 -17.32587,-12.0797 -29.409018,-28.66412 -33.125723,-45.4659 -0.536676,-2.42609 -0.623188,-3.54216 -0.605922,-7.81671 0.0237,-5.86734 0.414911,-7.76669 2.426704,-11.78184 3.559634,-7.10428 10.462431,-11.06078 20.194661,-11.57504 4.60213,-0.24315 5.24214,-0.59466 3.7062,-2.03542 -1.582,-1.48401 -4.27914,-2.56795 -9.90566,-3.98094 l -4.04312,-1.01534 0.007,-5.89735 c 0.004,-3.54068 0.14131,-6.62149 0.34354,-7.70944 2.33333,-12.55253 9.90482,-20.52956 20.31451,-21.40259 2.79108,-0.23408 3.13283,0.0794 3.44957,3.16391 0.28529,2.77825 0.66047,4.25859 1.49844,5.91223 0.79997,1.57868 1.41635,2.13397 1.76214,1.5875 0.13468,-0.21284 0.24777,-0.56892 0.25131,-0.79129 0.004,-0.22237 0.12249,-1.73855 0.26435,-3.36927 0.14186,-1.63073 0.44675,-7.93801 0.67754,-14.01618 0.62474,-16.45361 1.22026,-22.82877 2.70419,-28.94888 1.22834,-5.06598 3.53541,-10.99177 5.76705,-14.81287 7.09378,-12.14623 19.71494,-18.58369 30.01931,-15.31144 4.65127,1.47705 8.19753,4.8444 10.53679,10.00522 0.8678,1.91451 1.93584,3.38064 2.4627,3.38064 0.81992,0 1.07393,-1.14757 1.07393,-4.85175 v -3.63881 l -1.10306,-2.29111 c -1.80197,-3.74282 -5.0112,-7.36833 -8.791,-9.93131 -1.39895,-0.94859 -4.9987,-2.73715 -5.50893,-2.73715 -0.81891,0 -1.95424,-1.39434 -2.26462,-2.78127 -1.45955,-6.52194 7.60554,-23.11916 17.37437,-31.81062 7.89746,-7.02648 15.10042,-10.4148 22.15038,-10.4197 4.97201,-0.003 8.99779,1.53743 12.53,4.79591 2.54996,2.35235 3.81595,4.13413 6.31366,8.886 1.46991,2.79648 2.30026,4.10296 2.60847,4.10418 0.62437,0.002 1.44429,-1.11499 2.09581,-2.85635 1.82915,-4.88882 0.505,-9.48332 -4.69176,-16.27934 -1.41702,-1.8531 -3.23804,-4.23329 -4.04671,-5.28932 -2.48386,-3.24366 -2.90766,-4.23088 -2.76278,-6.43575 0.0751,-1.14338 0.50768,-3.05499 1.09784,-4.85175 6.06057,-18.45156 28.57825,-38.15831 49.63444,-43.43847 3.30424,-0.82859 9.51425,-1.15373 12.40866,-0.64969 4.06116,0.70722 8.44121,2.89762 11.04753,5.5247 3.60197,3.63068 5.15711,8.79626 5.76721,19.15645 0.67529,11.46733 0.58131,10.5429 1.01285,9.96204 0.21578,-0.29044 2.88808,-4.59142 5.93846,-9.55772 8.5346,-13.89519 10.90863,-17.28453 15.95345,-22.77628 3.2581,-3.54676 4.60954,-5.41656 4.68742,-6.48536 0.0496,-0.68026 -0.0466,-0.80428 -0.68017,-0.87724 -1.16609,-0.13427 -3.58757,1.33757 -7.5213,4.57165 -5.67202,4.66319 -8.55698,6.41412 -10.70984,6.49998 -1.34888,0.0538 -2.228,-0.54679 -3.35981,-2.29529 -1.11192,-1.71778 -4.33296,-4.84799 -8.66845,-8.42402 -5.2439,-4.32531 -6.33423,-5.44748 -6.33423,-6.51921 0,-1.75653 0.86081,-5.08645 1.86779,-7.22523 2.33568,-4.96092 6.4738,-8.87613 12.50096,-11.82758 4.91422,-2.40646 9.89537,-3.72686 17.84149,-4.72944 6.75715,-0.85256 7.44281,-1.13897 12.09678,-5.05307 12.28408,-10.33122 32.74381,-19.3021 50.57247,-22.17428 9.20574,-1.48304 15.67226,-1.3101 25.44981,0.68063 10.60471,2.15913 19.85086,5.35178 20.2638,6.99698 0.23523,0.9373 -0.74898,2.30492 -2.58771,3.59577 -5.33329,3.74414 -15.36949,6.83254 -32.14404,9.89155 -20.57591,3.75223 -29.02701,6.83729 -33.11418,12.08829 -0.65111,0.83649 -1.44456,1.58727 -1.76321,1.6684 -0.35965,0.0916 -1.79881,-0.36887 -3.79477,-1.21404 -5.74488,-2.4326 -8.26243,-2.85959 -16.78488,-2.84682 -6.83558,0.0102 -9.99887,0.39088 -12.938,1.55681 -1.24358,0.49332 -1.48248,0.69644 -1.48248,1.26046 0,0.54628 0.27802,0.81012 1.48248,1.40686 2.06504,1.02311 5.27411,1.50597 12.08272,1.81803 7.46544,0.34217 13.31935,1.31817 13.68935,2.28239 0.18415,0.47991 -1.07682,2.94593 -3.66865,7.17459 -3.95388,6.45086 -7.21388,12.43841 -16.69279,30.65907 -12.55851,24.14038 -21.30895,35.54974 -33.17344,43.25362 -6.26713,4.06938 -17.42806,8.55221 -21.2925,8.55221 -2.69647,0 -3.9056,-1.39359 -5.53198,-6.37586 -0.93408,-2.86147 -1.17176,-4.57828 -1.48416,-10.72024 -0.32269,-6.34418 0.0274,-16.18435 0.73212,-20.57886 0.55779,-3.47825 0.6195,-5.76335 0.15984,-5.91878 -0.54509,-0.18432 -2.94691,2.2871 -4.34832,4.47432 -1.95356,3.04896 -3.56791,6.43545 -5.15674,10.81753 -1.60491,4.42643 -2.16458,5.39084 -3.12847,5.39084 -0.36322,0 -2.02275,-0.70765 -3.68784,-1.57256 -4.00964,-2.08275 -6.36083,-2.9995 -8.81661,-3.43769 -2.1549,-0.3845 -8.63613,-0.51859 -8.62427,-0.17843 0.004,0.11119 1.98798,1.572 4.40913,3.24626 7.32021,5.06202 12.41789,9.34369 18.1341,15.23131 4.08531,4.20781 5.83497,6.62309 5.57501,7.6959 -0.66875,2.7597 -5.74469,14.18343 -9.89826,22.27667 -5.92096,11.53701 -11.33367,19.43581 -17.18395,25.07666 -5.88239,5.67182 -11.25661,8.22413 -17.35036,8.23998 -5.01175,0.013 -9.382,-1.46327 -14.85873,-5.01937 -1.87316,-1.21627 -2.29177,-1.63108 -2.89128,-2.86511 -1.18704,-2.44337 -1.60182,-4.99397 -1.6154,-9.93351 -0.0226,-8.23161 1.36274,-13.31476 4.57715,-16.79434 2.12316,-2.29831 1.94544,-3.30343 -0.57562,-3.25558 -3.90556,0.0741 -9.14751,6.47864 -10.1065,12.34794 -0.14714,0.90051 -0.2986,2.18206 -0.33658,2.8479 -0.0511,0.89666 -0.18929,1.23341 -0.53269,1.29854 -0.255,0.0484 -2.43829,-0.98436 -4.85175,-2.29493 -5.63206,-3.05835 -6.41677,-3.41467 -6.76125,-3.07019 -0.59109,0.59108 2.98215,6.60506 9.22391,15.52443 7.07003,10.10295 10.93827,17.72994 11.48764,22.65014 0.27578,2.46993 -0.19531,3.34888 -2.33777,4.36185 -2.07992,0.98339 -5.03883,3.23504 -8.66633,6.59486 -5.80441,5.37608 -8.84926,7.49827 -10.75827,7.49827 -1.23659,0 -1.9984,-0.86413 -3.44553,-3.90835 -0.98859,-2.07963 -1.52321,-2.7951 -3.74562,-5.01267 -2.41308,-2.40782 -5.9385,-5.09515 -6.68417,-5.09515 -0.98348,0 -0.71328,0.8103 2.75723,8.26871 4.11595,8.84551 6.20662,14.25776 7.541,19.52187 0.67514,2.66342 0.87407,5.09352 0.41695,5.09352 -0.13742,0 -2.53297,-2.19869 -5.32345,-4.88598 -5.95182,-5.73174 -9.34205,-8.35191 -13.42459,-10.37531 -3.83764,-1.90203 -6.2484,-2.42289 -9.91045,-2.14122 -1.44542,0.11118 -2.62803,0.28179 -2.62803,0.37914 1e-5,0.0974 1.6005,1.208 3.55665,2.46811 9.61517,6.19389 13.35444,10.07387 14.91498,15.47623 0.72691,2.51647 0.45539,6.85341 -0.62909,10.0483 -1.18849,3.50128 -2.91223,6.79836 -5.79035,11.07549 -4.18966,6.2262 -8.47205,11.36665 -18.23653,21.89055 -12.84134,13.84005 -16.92155,19.03027 -19.95875,25.38835 -2.39947,5.0231 -3.49457,11.28437 -3.12578,17.87192 0.58992,10.53773 3.68649,15.58205 21.38438,34.8352 5.76259,6.269 7.9755,8.93194 10.4771,12.60784 7.33427,10.77706 10.93657,21.72607 8.82295,26.8169 -0.59293,1.42814 -1.83611,2.54855 -3.86596,3.48418 -4.82849,2.22558 -10.88846,2.18132 -17.52295,-0.12798 -6.04595,-2.10447 -10.7477,-4.98558 -17.06965,-10.45984 -4.55831,-3.94709 -6.72726,-5.17924 -7.59303,-4.31347 -0.25652,0.25652 -0.34893,0.66935 -0.25217,1.12663 0.15189,0.71779 1.67898,3.88175 3.86093,7.99938 1.48817,2.80838 1.67389,4.07366 0.75447,5.13997 -0.67897,0.78744 -0.69036,0.78984 -3.60039,0.7583 -2.57645,-0.0279 -3.54992,-0.19409 -8.28963,-1.41509 -5.472006,-1.40962 -8.311955,-1.74426 -8.996214,-1.06 -2.132126,2.13213 5.958854,7.41693 13.326464,8.70447 2.80644,0.49046 8.78018,0.84839 22.6537,1.35733 15.29024,0.56092 17.62702,0.8937 19.51045,2.77852 1.47284,1.47394 1.59834,2.48369 1.59834,12.86027 v 9.01639 l -6.94071,-0.0559 c -3.81738,-0.0308 -8.09299,-0.0885 -9.50134,-0.12819 z"
         id="path33" />
      <path
         style="fill:#ffd5e5;stroke-width:0;stroke-linecap:round;stroke-linejoin:round;stroke-opacity:0.995668"
         d="m 73.771078,509.77089 c -3.18283,-3.15739 -3.743106,-3.85267 -4.832756,-5.99731 -2.111516,-4.15584 -2.878469,-7.54247 -3.464142,-15.29649 -0.187556,-2.48315 -0.412984,-4.51483 -0.500952,-4.51483 -0.346358,0 -5.612576,5.04531 -6.803009,6.51766 -1.630313,2.01636 -3.383862,5.53698 -4.649117,9.33412 -0.659682,1.97976 -1.138366,3.01615 -1.393076,3.01615 -0.638397,0 -2.729894,-2.11032 -4.030635,-4.06693 -3.027464,-4.55393 -4.125596,-8.26617 -4.352483,-14.7135 -0.28336,-8.05205 1.079721,-16.03159 4.280665,-25.05919 1.541419,-4.34725 5.057309,-11.3175 6.528208,-12.94216 1.100883,-1.21597 1.208903,-1.27103 1.88725,-0.96195 1.512402,0.6891 3.364074,5.57308 7.432328,19.60357 4.905398,16.9176 10.149528,30.39622 11.178501,28.73132 0.224269,-0.36289 1.486582,-7.93049 2.836717,-17.00626 4.631102,-31.13076 9.567695,-48.02479 17.642827,-60.37735 2.716238,-4.15504 5.523376,-7.26797 9.716246,-10.77463 3.69022,-3.0863 5.26448,-4.62319 5.26448,-5.13954 0,-0.33473 -0.93201,-0.79742 -1.60626,-0.79742 -1.02767,0 -3.56543,1.04776 -5.36856,2.2165 -0.97816,0.63402 -3.27117,2.57797 -5.095569,4.31988 -1.979005,1.88953 -3.535345,3.16712 -3.858132,3.16712 -0.682617,0 -1.194232,-1.17817 -1.861636,-4.28705 -1.047687,-4.88031 -0.925256,-8.4173 0.442307,-12.77809 2.681634,-8.551 9.1514,-15.4787 19.45829,-20.83555 4.49528,-2.33635 4.81725,-2.8081 2.63689,-3.8636 -1.58019,-0.76495 -3.29715,-0.94344 -5.45716,-0.56728 -4.29419,0.7478 -8.44579,3.19435 -12.960947,7.63794 -1.995639,1.964 -3.06745,2.84637 -3.152027,2.59489 -0.322889,-0.96007 -0.712722,-4.56759 -0.722773,-6.68858 -0.01353,-2.85713 0.332814,-4.36896 1.642506,-7.16955 2.47365,-5.28956 7.831901,-10.99921 18.733261,-19.96179 4.73939,-3.89649 7.2823,-5.55934 8.34292,-5.45554 1.29116,0.12636 1.5014,1.21977 1.68841,8.78104 l 0.16186,6.54431 3.4481,-6.74988 c 7.70476,-15.08258 13.18064,-23.60145 21.87654,-34.03343 3.27624,-3.93033 11.11266,-11.86387 14.88648,-15.07096 15.37085,-13.06257 31.47558,-20.68523 48.67563,-23.03905 4.05624,-0.5551 13.20428,-0.62908 16.95779,-0.13713 1.40836,0.18458 4.12379,0.64033 6.03428,1.01279 2.28802,0.44605 3.56455,0.58628 3.73999,0.41084 0.17544,-0.17544 0.0602,-0.69228 -0.33775,-1.51426 -1.52985,-3.16024 -7.78195,-6.00927 -15.66674,-7.13919 -4.58282,-0.65674 -5.23617,-0.98692 -5.20517,-2.63044 0.0378,-2.00565 4.45215,-10.32506 8.47739,-15.97688 4.016,-5.63884 10.57304,-12.53741 16.03078,-16.86573 14.45694,-11.46524 32.35961,-18.68257 51.34771,-20.70045 12.25923,-1.3028 22.94577,-0.54439 35.60838,2.52708 1.72076,0.41738 3.81307,0.84439 4.6496,0.94891 1.48806,0.18592 1.52099,0.17566 1.52099,-0.47384 0,-2.66754 -14.40118,-11.25807 -18.87304,-11.25807 -1.04194,0 -1.71741,-0.59134 -1.49086,-1.30516 0.49913,-1.57262 5.53849,-5.39819 11.37601,-8.63598 11.58552,-6.42591 23.39391,-9.52425 37.82887,-9.92572 13.72609,-0.38176 23.69318,1.99676 29.20204,6.96871 1.91442,1.72784 2.68591,2.11852 4.1713,2.11235 1.27919,-0.005 1.73447,-0.30892 1.73447,-1.15662 0,-0.97691 -0.91881,-2.13686 -3.0683,-3.87357 -1.0314,-0.83333 -2.19057,-2.05316 -2.57593,-2.71073 -0.67391,-1.14994 -0.68423,-1.22997 -0.27089,-2.09679 1.55717,-3.26543 11.97666,-4.98876 30.10189,-4.9787 7.54374,0.004 11.88636,0.22088 16.44666,0.82067 4.42132,0.58151 7.54716,1.5797 7.54716,2.41006 0,0.74275 -1.50625,2.6126 -4.99353,6.19897 -1.80191,1.8531 -3.42245,3.64469 -3.60124,3.98131 -0.827,1.55724 0.65049,1.50441 6.22124,-0.22243 5.71887,-1.77276 10.96812,-3.04731 15.98539,-3.88136 28.12758,-4.67583 59.8493,0.49326 75.55459,12.3117 2.11366,1.59055 2.89652,2.46666 3.16695,3.54411 0.29396,1.1713 -1.3959,2.58177 -4.20585,3.51047 -4.34887,1.43732 -8.56485,1.87934 -17.91191,1.87795 -11.15701,-0.002 -17.69243,-0.66809 -30.11334,-3.0707 -43.0807,-8.33321 -58.231,-7.55947 -74.19933,3.78944 -2.69922,1.91836 -3.06588,2.10833 -4.63534,2.40154 -2.73326,0.51062 -5.29132,-0.25707 -15.72428,-4.719 -11.26952,-4.8197 -19.67429,-7.39907 -24.40973,-7.49121 -2.95162,-0.0574 -3.49709,0.6774 -1.8534,2.49677 1.79156,1.98304 6.68868,4.04943 14.3796,6.06762 1.98323,0.52042 3.6504,0.99072 3.70477,1.04511 0.0544,0.0544 -1.32569,0.49579 -3.06682,0.9809 -13.16299,3.66748 -18.49318,5.79466 -36.17405,14.4364 -13.90382,6.79567 -20.7938,9.67151 -28.73331,11.99316 -12.47241,3.64714 -21.81184,4.36489 -31.3473,2.40909 -2.75603,-0.56529 -5.97236,-0.67817 -6.79398,-0.23845 -0.80637,0.43155 -0.6662,1.69359 0.3118,2.80747 0.82155,0.93569 3.01648,2.38851 6.44447,4.26557 0.96361,0.52764 2.2764,1.34041 2.91731,1.80615 1.39151,1.0112 1.46751,0.87014 -1.94973,3.61856 -8.65289,6.95935 -14.86807,9.36977 -20.64413,8.00635 -2.27326,-0.5366 -6.05181,-2.46645 -8.97342,-4.58308 -4.01546,-2.9091 -5.09825,-3.32095 -5.56436,-2.11649 -0.46035,1.18958 0.40944,2.08531 5.23858,5.39483 5.63957,3.86492 8.53406,7.09899 8.92838,9.97587 0.84711,6.18039 -9.23357,12.86621 -33.72622,22.36827 -7.08677,2.74936 -13.54868,5.07419 -29.38005,10.57023 -23.8042,8.2639 -38.88775,14.34673 -46.00473,18.5526 -5.51443,3.25883 -5.69412,5.22461 -0.37706,4.12502 3.11548,-0.6443 5.62589,-1.5646 11.46721,-4.20381 5.69046,-2.57106 8.46064,-3.51996 8.92382,-3.05678 0.18612,0.18611 0.10685,0.69949 -0.24647,1.59617 -1.28079,3.25056 -2.55298,15.59493 -1.66381,16.14446 0.31991,0.19772 2.00781,-2.38365 4.31666,-6.60163 4.67703,-8.54433 10.04138,-14.04018 15.56738,-15.949 3.33605,-1.15235 9.09991,-0.7359 10.33008,0.74638 0.18369,0.22133 0.31837,0.8179 0.29928,1.3257 -0.0971,2.58313 -3.85895,7.90247 -19.86304,28.08689 l -7.27762,9.17858 -7.27763,0.13828 c -7.67817,0.14589 -10.38762,0.44509 -15.36388,1.69664 -7.26233,1.82651 -14.20012,5.02056 -20.27689,9.33517 -5.8877,4.18037 -13.01152,11.18531 -13.01152,12.79439 0,0.65827 0.0556,0.68542 1.07082,0.52308 1.26725,-0.20264 5.68756,-2.05781 9.71085,-4.07557 9.19205,-4.60999 18.66416,-7.51353 24.58484,-7.53614 3.37427,-0.0129 3.86967,0.24244 3.76527,1.94065 -0.23891,3.88647 -3.99189,9.54114 -9.27539,13.97538 -6.11701,5.13376 -11.78619,7.94611 -18.99185,9.4214 -4.17974,0.85577 -5.74325,1.47634 -5.74325,2.27957 0,0.85807 1.74347,1.49689 6.15683,2.2559 4.06787,0.6996 5.16675,1.15334 5.15942,2.13037 -0.007,0.91601 -2.13632,4.68953 -5.51033,9.76468 -4.2139,6.33848 -6.63747,8.98218 -9.57363,10.44321 -1.10036,0.54754 -1.56359,0.60107 -4.76635,0.55083 -2.63794,-0.0414 -3.62211,0.0342 -3.83838,0.2948 -0.2137,0.2575 -0.0798,0.97471 0.50481,2.70428 4.03581,11.9395 2.63311,25.93001 -3.50196,34.92871 -1.56331,2.29299 -4.5481,5.01019 -6.51436,5.93032 -4.12585,1.9307 -6.573786,1.74305 -12.000614,-0.92002 -5.165768,-2.53494 -6.233884,-2.59081 -6.835229,-0.35758 -0.892194,3.31334 2.368698,8.21607 6.985418,10.50251 1.395178,0.69097 2.127838,0.86897 3.975741,0.96598 2.213491,0.11618 2.265372,0.13453 2.265372,0.80189 0,0.73391 -1.040108,2.76563 -6.998046,13.66989 -2.106016,3.85445 -6.373466,12.13275 -9.483223,18.39623 -3.109758,6.26347 -5.704456,11.38814 -5.766,11.38814 -0.06154,0 -1.731992,-1.60714 -3.712111,-3.57143 z"
         id="path34" />
      <path
         style="fill:#ffd5e5;stroke-width:0;stroke-linecap:round;stroke-linejoin:round;stroke-opacity:0.995668"
         d="m 70.914713,452.9495 c -1.503363,-2.45134 -3.199671,-8.07807 -3.977058,-13.19209 -0.579048,-3.80925 -0.653061,-14.02377 -0.133785,-18.46361 1.362737,-11.65149 4.271711,-21.67899 8.957783,-30.87832 1.841022,-3.61415 2.600941,-4.49974 3.464587,-4.03753 0.750849,0.40184 3.582368,6.25003 4.376823,9.03984 0.500183,1.75645 0.612456,2.80615 0.605413,5.66038 -0.01363,5.52158 -1.21243,10.83744 -6.073822,26.93313 -3.271239,10.83082 -4.913686,17.12582 -5.649446,21.65259 -0.690741,4.2498 -0.817078,4.5141 -1.570495,3.28561 z"
         id="path35" />
      <path
         style="fill:#ffd5e5;stroke-width:0;stroke-linecap:round;stroke-linejoin:round;stroke-opacity:0.995668"
         d="m 696.36119,315.30564 c -1.72636,-1.37248 -10.15705,-9.27632 -14.04973,-13.17174 -3.72326,-3.72586 -4.55175,-5.03196 -4.31012,-6.79479 0.31858,-2.3243 1.65691,-2.83825 4.11332,-1.57961 5.24168,2.68578 12.24497,11.81415 14.90731,19.43079 1.11246,3.18259 1.02675,3.45697 -0.66078,2.11535 z"
         id="path36" />
      <path
         style="fill:#ffd5e5;stroke-width:0;stroke-linecap:round;stroke-linejoin:round;stroke-opacity:0.995668"
         d="m 740.96471,400.20216 c -0.61806,-1.59367 -2.91852,-8.23451 -5.11212,-14.75742 -5.21574,-15.50949 -7.19846,-20.45187 -12.28526,-30.62369 -2.87444,-5.74788 -5.44707,-10.28921 -8.99154,-15.87226 -4.24543,-6.68719 -5.59001,-9.98639 -4.15332,-10.19103 2.07868,-0.29609 10.25169,6.2556 14.69708,11.78154 8.86296,11.01729 14.74301,26.55391 16.50198,43.60253 0.4272,4.14056 0.91566,18.9579 0.62496,18.9579 -0.0869,0 -0.66373,-1.30391 -1.28178,-2.89757 z"
         id="path37" />
      <path
         style="fill:#ffd5e5;stroke-width:0;stroke-linecap:round;stroke-linejoin:round;stroke-opacity:0.995668"
         d="m 753.28751,469.10394 c -0.32322,-1.31651 -0.73879,-6.54239 -1.13337,-14.25219 -0.22382,-4.37331 -0.53608,-9.56992 -0.69391,-11.548 -0.15782,-1.97809 -0.22631,-3.65717 -0.15219,-3.73128 0.25582,-0.25583 2.31066,4.36825 2.7772,6.24963 0.39276,1.58388 0.46213,3.08441 0.43204,9.34641 -0.0459,9.55852 -0.64307,16.32521 -1.22977,13.93543 z"
         id="path38" />
      <path
         style="fill:#ffd5e5;stroke-width:0;stroke-linecap:round;stroke-linejoin:round;stroke-opacity:0.995668"
         d="m 384.3811,448.49858 c -2.6289,-2.37506 -13.54242,-17.70554 -14.9987,-21.06904 -0.88698,-2.0486 -0.43993,-5.0562 1.25574,-8.44828 2.32699,-4.65497 7.74072,-9.52918 14.02604,-12.62823 3.29439,-1.62434 10.63484,-4.18169 11.49335,-4.0042 0.72844,0.15061 0.52076,1.56993 -0.84759,5.79255 -3.76125,11.60692 -8.3545,31.43266 -8.95749,38.66296 -0.22769,2.73023 -0.53361,2.99315 -1.97135,1.69424 z"
         id="path39" />
      <path
         style="fill:#ffd5e5;stroke-width:0;stroke-linecap:round;stroke-linejoin:round;stroke-opacity:0.995668"
         d="m 460.68383,642.97251 c -1.76479,-0.14621 -3.4554,-0.44005 -3.98918,-0.69335 -1.90338,-0.90321 -2.64504,-4.18057 -1.89009,-8.35225 0.48559,-2.68331 2.06639,-7.91613 2.39141,-7.91613 0.13041,0 1.29378,0.70899 2.58526,1.57554 3.19203,2.14174 8.22088,5.0081 17.02261,9.7026 l 7.39682,3.94517 -2.00599,0.46972 c -5.41316,1.26756 -14.82469,1.82265 -21.51084,1.2687 z"
         id="path40" />
      <path
         style="fill:#ffd5e5;stroke-width:0;stroke-linecap:round;stroke-linejoin:round;stroke-opacity:0.995668"
         d="m 244.06129,682.36202 c 0.22514,-0.43539 1.78475,-2.5277 3.46579,-4.64959 6.97708,-8.80681 8.0817,-11.45019 7.93825,-18.99623 l -0.0745,-3.91857 -2.29111,4.11816 c -3.09487,5.56289 -5.20276,8.4517 -8.74321,11.98231 -5.78479,5.76873 -12.61205,9.39395 -20.3673,10.81487 -4.07516,0.74666 -10.54541,0.63233 -14.8248,-0.26195 -4.64902,-0.97152 -7.84516,-2.06723 -12.26415,-4.20441 -6.5725,-3.1787 -13.03116,-7.96812 -18.43494,-13.67044 -16.384,-17.28916 -18.60867,-35.03897 -5.95821,-47.53843 2.84482,-2.81087 6.22281,-5.12676 10.64652,-7.29907 4.45959,-2.18992 13.14309,-5.22545 13.85625,-4.84377 0.90573,0.48473 5.84544,5.86164 7.20101,7.83836 2.95277,4.30577 5.06404,9.10057 5.74199,13.04038 0.59319,3.44719 1.71765,4.45504 3.29733,2.9554 1.89176,-1.79591 3.04024,-5.46924 3.46674,-11.08815 0.35981,-4.74034 0.32766,-4.68615 2.47915,-4.17895 1.70257,0.40137 2.62719,0.39282 10.7775,-0.0996 3.28258,-0.19833 4.32267,0.0655 4.75197,1.20526 0.77917,2.06864 0.53685,6.053 -0.75619,12.43394 -1.04321,5.14801 -2.38983,9.3135 -4.20948,13.02115 -0.81467,1.65995 -1.3713,3.05474 -1.23695,3.09952 0.13435,0.0448 3.21825,-1.07412 6.85311,-2.48644 12.9756,-5.04169 20.37271,-6.56078 30.50566,-6.26475 7.26856,0.21235 11.74774,1.20813 17.30472,3.84707 6.16505,2.92771 10.65076,7.08197 14.38767,13.32457 0.81537,1.36208 1.88091,2.8282 2.36787,3.25803 1.15274,1.0175 2.13138,1.0332 2.51131,0.0403 0.39332,-1.02791 0.007,-2.1847 -2.13755,-6.39741 -1.56636,-3.07722 -1.78249,-3.68481 -1.78986,-5.03155 -0.007,-1.2597 0.10849,-1.65621 0.64966,-2.23279 0.7924,-0.84425 2.84818,-1.49923 4.71434,-1.50201 5.87762,-0.009 14.11587,-3.53647 24.54677,-10.51118 5.44656,-3.64189 8.82781,-5.12021 11.71111,-5.12021 3.1137,0 5.82298,1.67471 9.90119,6.12031 7.08029,7.71814 8.74395,9.24357 10.08113,9.24357 1.33214,0 1.35769,-1.56857 0.0907,-5.56554 -1.24536,-3.92862 -1.15059,-7.12619 0.25719,-8.67839 0.93451,-1.03038 1.76125,-1.3044 4.91592,-1.62934 5.47795,-0.56424 11.36464,-2.47117 18.83795,-6.10235 9.8071,-4.76514 15.62108,-8.62747 29.3522,-19.49916 3.39438,-2.68752 6.37283,-4.8864 6.61879,-4.8864 0.95851,0 3.9747,2.93469 5.91573,5.75587 1.18546,1.72301 1.43723,2.48205 0.95581,2.88159 -0.54402,0.45149 -0.48397,1.58199 0.13822,2.60242 0.72588,1.19047 3.23273,3.10507 5.80631,4.43453 5.89331,3.04437 8.27296,4.91087 9.29755,7.29258 0.84274,1.95901 0.66708,5.03906 -0.4823,8.45695 -6.76908,20.12887 -20.52121,33.10359 -41.96889,39.59637 -8.52765,2.58155 -18.17249,3.85878 -32.61456,4.31905 -2.66846,0.0851 -5.23055,0.21287 -5.69354,0.28405 -0.83531,0.12842 -0.84515,0.11599 -1.28032,-1.61641 -0.24119,-0.9602 -0.4374,-2.14543 -0.43601,-2.63383 0.003,-1.16168 1.06686,-2.97617 3.7686,-6.42951 3.49137,-4.46264 4.38644,-6.62151 4.73951,-11.43153 0.1583,-2.15644 0.12551,-2.56874 -0.20424,-2.56874 -0.21605,0 -1.53658,1.53744 -2.93451,3.41652 -11.53989,15.5118 -26.17759,22.38246 -56.98914,26.74966 -3.1132,0.44126 -10.57277,1.36086 -16.57682,2.04354 -22.83683,2.59665 -32.7563,4.18363 -43.01694,6.88211 -5.04216,1.32606 -5.10993,1.33018 -4.56597,0.27828 z"
         id="path41" />
      <path
         style="fill:#ffd5e5;stroke-width:0;stroke-linecap:round;stroke-linejoin:round;stroke-opacity:0.995668"
         d="m 271.83288,628.79149 c -9.79566,-0.85063 -25.21433,-5.31109 -25.19828,-7.2896 0.006,-0.70846 2.34841,-5.43506 4.44494,-8.9682 2.33275,-3.93121 4.5185,-7.20094 7.19018,-10.75601 1.1592,-1.54249 2.10764,-2.90704 2.10764,-3.03234 0,-0.41014 -0.60251,-0.24528 -4.02965,1.10265 -6.26847,2.46546 -11.69628,3.14097 -23.29721,2.89943 -7.65818,-0.15946 -12.66334,-0.56222 -19.30387,-1.5534 -10.68043,-1.59418 -12.94331,-1.88758 -17.46908,-2.26496 -5.73247,-0.47801 -14.51315,-0.53716 -17.90913,-0.12066 -1.29763,0.15916 -3.29845,0.51311 -4.44627,0.78658 -1.14781,0.27346 -2.11044,0.4737 -2.13917,0.44496 -0.19485,-0.19485 -0.89349,-9.84831 -0.89349,-12.34583 0,-10.01621 2.91635,-18.21569 8.48182,-23.84711 5.68837,-5.75578 12.68312,-8.20367 23.3587,-8.17461 l 4.41285,0.012 2.45418,3.55941 c 4.46224,6.47182 5.93009,9.48134 7.22401,14.81133 0.45867,1.88935 0.91045,3.40552 1.00396,3.36927 0.0935,-0.0363 1.77436,-1.80191 3.73521,-3.92368 5.47409,-5.9233 9.26424,-8.90995 15.07272,-11.87735 12.69915,-6.48764 27.93085,-7.18498 39.18818,-1.79409 5.76889,2.76259 9.84002,6.7512 12.295,12.04577 1.43348,3.09157 1.92161,5.31374 2.18002,9.92455 0.25445,4.54003 0.51147,5.71447 1.57021,7.17502 1.41845,1.95677 3.77151,2.85802 10.15605,3.88989 5.18077,0.83731 6.75416,1.27234 9.39514,2.59767 2.56199,1.28569 3.48993,1.39972 3.62577,0.44554 0.23057,-1.61958 -2.69303,-4.79235 -7.69701,-8.35298 -6.04125,-4.29872 -8.25216,-6.72156 -9.09841,-9.97054 -0.52875,-2.03 -0.53107,-8.0556 -0.004,-11.30309 2.16362,-13.33987 12.60189,-24.41185 27.77804,-29.46445 16.26225,-5.41418 32.98236,-2.33438 42.6109,7.84882 3.22127,3.40683 4.83738,6.11969 7.02375,11.79031 1.26631,3.28433 1.70227,4.05249 1.70227,2.99936 0,-2.14155 0.93839,-10.38637 1.50053,-13.1838 0.85348,-4.24732 2.93637,-10.56901 4.65242,-14.1204 1.45723,-3.01574 4.45066,-7.75744 4.89727,-7.75744 0.58501,0 1.40985,1.95104 3.2477,7.68194 4.23823,13.21594 6.60292,19.3171 12.06721,31.13469 3.36361,7.27447 3.6632,8.19655 3.67726,11.31814 0.008,1.81983 -0.1376,3.01534 -0.50392,4.13231 -0.75354,2.29761 -4.78797,10.13491 -6.82235,13.25314 -7.39387,11.33302 -19.24976,19.27625 -31.15879,20.87583 -2.70087,0.36277 -8.3573,0.36318 -11.71619,8.1e-4 -5.14547,-0.55505 -10.49348,-2.20352 -10.94218,-3.37282 -0.0941,-0.24512 0.14021,-1.4309 0.52061,-2.63507 1.37986,-4.36803 1.82701,-7.85183 1.82193,-14.19495 -0.004,-4.70086 -0.11122,-6.38046 -0.56911,-8.89488 -0.82635,-4.53769 -1.7695,-7.59266 -3.32857,-10.78167 -1.13299,-2.31748 -1.73075,-3.17327 -3.29972,-4.72404 -1.95819,-1.93547 -3.31524,-2.74614 -4.09567,-2.44666 -0.59524,0.22841 -0.40342,1.18495 1.26509,6.30854 3.37935,10.37715 3.76657,18.24371 1.30548,26.52124 -3.13799,10.55422 -12.15029,19.76735 -24.32071,24.86269 -7.61812,3.18945 -13.84852,4.48932 -25.26027,5.27017 -3.60461,0.24664 -15.96051,0.30587 -18.46362,0.0885 z"
         id="path42" />
      <path
         style="fill:#ffffff;stroke-width:0;stroke-linecap:round;stroke-linejoin:round;stroke-opacity:0.995668"
         d="m 48.840817,579.24874 c -2.690043,-1.25234 -5.948316,-4.91283 -7.972705,-8.95689 -2.357526,-4.70955 -2.864171,-7.76511 -2.860056,-17.24888 0.0075,-17.20993 3.09184,-37.27508 5.996965,-39.0128 1.117531,-0.66846 3.435987,1.93371 4.508727,5.06046 0.466995,1.36117 1.324995,6.25423 1.346219,7.6773 0.02772,1.85864 3.664942,-5.8726 6.734,-14.31371 1.36563,-3.75602 1.814308,-4.44046 2.626093,-4.006 0.787376,0.42139 3.513392,3.44852 5.844121,6.48966 3.282757,4.28335 5.946326,8.46728 8.161706,12.8204 l 2.101038,4.12845 -2.962637,3.05933 c -3.158873,3.26197 -4.802501,5.52374 -6.532487,8.98925 -1.160502,2.32471 -2.588897,6.53146 -2.88296,8.49057 -0.750367,4.99908 -2.715932,6.62096 -6.129834,5.05803 -2.911713,-1.33303 -5.239818,-4.52473 -6.825826,-9.35783 l -0.747615,-2.27823 -0.790171,0.93052 c -2.287621,2.69396 -2.902834,4.09719 -2.902834,6.62101 0,2.45789 0.768661,4.21183 3.539228,8.07588 7.119262,9.92907 8.121,12.45017 6.261953,15.75966 -1.529082,2.72208 -3.609683,3.36541 -6.512925,2.01382 z"
         id="path43" />
      <path
         style="fill:#ffffff;stroke-width:0;stroke-linecap:round;stroke-linejoin:round;stroke-opacity:0.995668"
         d="m 526.28032,617.08779 c -8.62956,-2.419 -22.10613,-7.68523 -30.32345,-11.84946 -8.54121,-4.32838 -18.36865,-11.25685 -26.41509,-18.62297 -23.34702,-21.37302 -38.43628,-50.69007 -43.53979,-84.5938 -1.99644,-13.26278 -2.30181,-30.73458 -0.77732,-44.47439 5.70695,-51.43508 32.05041,-98.02602 72.34945,-127.95694 13.83434,-10.27504 29.8037,-18.69194 44.88811,-23.65897 7.01981,-2.31151 15.19727,-4.26994 23.03642,-5.51704 12.10847,-1.92628 26.51999,-2.12178 38.67925,-0.5247 13.54624,1.77925 24.88657,5.25143 37.60108,11.5127 3.64323,1.79411 4.55763,2.34384 4.01698,2.41495 -0.385,0.0507 -3.23541,-0.33109 -6.33423,-0.84829 -10.0335,-1.67462 -12.72368,-1.89677 -23.01968,-1.90098 -10.16203,-0.004 -13.38383,0.2507 -21.96766,1.73772 -47.13099,8.16475 -90.20009,42.59306 -113.90871,91.05563 -11.06715,22.62226 -17.24395,46.32732 -18.83504,72.2843 -1.29847,21.1833 2.49192,45.52633 10.42945,66.98113 6.50928,17.59431 15.8032,34.0065 26.63507,47.03505 7.75469,9.3273 14.9123,15.73557 25.90662,23.19439 2.838,1.92536 5.30905,3.68027 5.49123,3.89976 0.28421,0.34245 0.16394,0.39638 -0.84734,0.37997 -0.6482,-0.0105 -2.02761,-0.25717 -3.06535,-0.54806 z"
         id="path44" />
      <path
         style="fill:#ffffff;stroke-width:0;stroke-linecap:round;stroke-linejoin:round;stroke-opacity:0.995668"
         d="m 589.89218,624.38838 c -34.25589,-2.51706 -65.87664,-20.28509 -88.01361,-49.45577 -20.98216,-27.64893 -31.0159,-64.2832 -28.27483,-103.2345 3.6764,-52.24258 32.50267,-101.66032 75.18332,-128.88899 17.30605,-11.04062 36.22736,-17.76784 56.06469,-19.93307 5.07112,-0.5535 16.66646,-0.62546 21.42857,-0.13298 15.57755,1.61099 29.19417,5.6044 42.85715,12.56892 19.8887,10.13799 35.82217,24.26408 48.03426,42.58558 22.82301,34.2408 29.46371,80.77776 17.9805,126.00438 -6.74378,26.56035 -19.29125,50.86633 -36.57096,70.84237 -3.72005,4.30053 -11.77053,12.30024 -15.86913,15.76903 -10.07285,8.52503 -20.37155,15.2611 -31.63397,20.6908 -14.38779,6.93647 -28.60845,11.19054 -42.72821,12.78202 -4.51194,0.50855 -14.15187,0.7186 -18.45778,0.40221 z m 47.43936,-35.31513 c 11.1163,-1.2621 22.07601,-5.98859 30.79579,-13.28101 2.90764,-2.43169 8.18272,-7.88963 10.73142,-11.10342 13.01873,-16.41604 22.51538,-40.63009 28.28965,-72.13144 3.81549,-20.81529 4.88716,-39.99402 3.07839,-55.09107 -2.88887,-24.11215 -12.16124,-41.1377 -28.15132,-51.69032 -14.48043,-9.55632 -37.87559,-13.62596 -54.44744,-9.47125 -25.36887,6.3602 -42.64293,30.0131 -53.91916,73.83003 -7.77667,30.21842 -10.44419,56.99475 -7.78719,78.16712 3.41904,27.24471 15.60204,46.01372 35.70844,55.01205 6.52628,2.92074 14.60528,5.01068 22.62864,5.85376 2.13619,0.22446 10.81621,0.16175 13.07278,-0.0944 z"
         id="path45" />
      <path
         style="fill:#ffffff;stroke-width:0;stroke-linecap:round;stroke-linejoin:round;stroke-opacity:0.995668"
         d="m 621.2938,578.12956 c -0.37062,-0.0544 -1.58356,-0.22954 -2.69542,-0.38919 -17.03666,-2.44632 -29.98953,-14.0013 -36.38394,-32.45735 -3.63045,-10.47851 -5.19977,-21.30883 -5.19454,-35.84906 0.005,-14.24855 1.49663,-27.69784 4.93873,-44.53397 11.08386,-54.21371 31.60457,-79.98723 62.65053,-78.68758 16.49718,0.6906 31.19155,7.08867 40.33259,17.56117 16.85501,19.3101 19.58568,53.32438 8.05059,100.2813 -8.25914,33.62122 -20.3217,55.51848 -36.53287,66.3184 -8.37294,5.57808 -17.35478,7.98114 -29.49724,7.8919 -2.74702,-0.0202 -5.29781,-0.0812 -5.66843,-0.13562 z"
         id="path46" />
      <path
         style="fill:#ffd5e5;stroke-width:0;stroke-linecap:round;stroke-linejoin:round;stroke-opacity:0.995668"
         d="m 48.840817,579.24874 c -2.751211,-1.28082 -5.949895,-4.91337 -8.084585,-9.18117 -2.254594,-4.50753 -2.745243,-7.52054 -2.74863,-16.87901 -0.0063,-17.31727 3.070755,-37.40778 5.997419,-39.15839 0.7383,-0.44162 1.801073,0.31014 3.035339,2.14706 1.390195,2.06899 1.947692,3.81512 2.483657,7.77902 0.502508,3.71646 0.423701,3.72827 2.477822,-0.37134 1.281753,-2.55813 2.539122,-5.61639 4.590188,-11.16459 1.166479,-3.15537 1.721475,-4.1993 2.232515,-4.1993 0.590695,0 4.105427,3.86813 6.857649,7.54717 3.491375,4.66711 5.308876,7.5702 7.708017,12.31198 l 1.933471,3.82142 -2.707444,2.78278 c -1.489095,1.53054 -3.257141,3.5295 -3.928992,4.44215 -2.581682,3.50696 -4.927091,8.99602 -5.766167,13.49481 -0.526533,2.82305 -0.899081,3.77284 -1.808631,4.61101 -1.041372,0.95964 -2.553301,1.04823 -4.293438,0.25157 -2.910332,-1.3324 -5.239943,-4.52501 -6.823754,-9.35161 l -0.745543,-2.27201 -1.038071,1.19384 c -3.500719,4.02604 -3.579571,8.04945 -0.250548,12.78414 8.528123,12.12912 9.313463,13.97721 7.392651,17.39665 -1.529082,2.72208 -3.609683,3.36541 -6.512925,2.01382 z"
         id="path48" />
      <path
         style="fill:#ffffff;stroke-width:0;stroke-linecap:round;stroke-linejoin:round;stroke-opacity:0.995668"
         d="m 653.90836,294.71097 c -9.50158,-4.41606 -16.39296,-6.86829 -26.81941,-9.54341 -14.28065,-3.66399 -27.08913,-5.66083 -42.45283,-6.61838 -2.89084,-0.18017 -5.33231,-0.40049 -5.4255,-0.4896 -0.0932,-0.0891 0.42239,-2.64853 1.14575,-5.68761 7.17765,-30.15595 9.10572,-57.29092 5.87974,-82.74933 -2.30427,-18.18455 -7.0767,-34.47568 -14.65283,-50.01882 -7.22816,-14.82924 -15.64623,-26.76353 -27.24366,-38.6233 -19.89035,-20.340294 -45.50197,-35.458818 -77.22372,-45.585118 -7.05214,-2.251203 -7.54717,-2.42813 -7.54717,-2.697418 0,-1.174673 19.18995,-0.488173 38.00539,1.359602 19.34244,1.899528 28.71952,3.776493 42.91433,8.589953 63.71715,21.606483 111.72661,79.998761 123.52943,150.244651 1.97002,11.72478 2.67082,20.51813 2.65662,33.33423 -0.0116,10.5215 -0.34102,15.81633 -1.58541,25.48618 -1.47303,11.4467 -4.56009,25.47485 -5.6004,25.44922 -0.17835,-0.004 -2.6895,-1.10728 -5.58033,-2.45085 z"
         id="path49" />
    </g>
  </g>
</svg>
